<?xml version="1.0" encoding="utf-8"?>
<!-- Generator: Adobe Illustrator 16.0.0, SVG Export Plug-In . SVG Version: 6.00 Build 0)  -->
<!DOCTYPE svg PUBLIC "-//W3C//DTD SVG 1.1//EN" "http://www.w3.org/Graphics/SVG/1.1/DTD/svg11.dtd">
<svg version="1.1" id="Layer_1" xmlns="http://www.w3.org/2000/svg" xmlns:xlink="http://www.w3.org/1999/xlink" x="0px" y="0px"
	 width="10.243px" height="12.127px" viewBox="0 0 10.243 12.127" enable-background="new 0 0 10.243 12.127" xml:space="preserve">
<path d="M10.243,11.497L7.211,7.758C8.175,6.95,8.802,5.754,8.802,4.401C8.802,1.974,6.827,0,4.4,0C1.974,0,0,1.974,0,4.401
	c0,2.426,1.974,4.4,4.4,4.4c0.713,0,1.377-0.187,1.973-0.487l3.093,3.813L10.243,11.497z M1,4.401C1,2.526,2.525,1,4.4,1
	c1.875,0,3.402,1.526,3.402,3.401s-1.526,3.4-3.402,3.4C2.525,7.801,1,6.276,1,4.401"/>
<g>
</g>
<g>
</g>
<g>
</g>
<g>
</g>
<g>
</g>
<g>
</g>
</svg>
