<svg xmlns="http://www.w3.org/2000/svg" width="20" height="20"><path d="M15.066 4.325C12.791 2.103 9.26 1.629 6.481 3.174 4.193 4.442 2.818 6.866 2.774 9.412L1.727 8.364A.831.831 0 10.551 9.54l2.496 2.495a.83.83 0 001.175 0L6.717 9.54a.831.831 0 10-1.176-1.176L4.538 9.368c.057-1.9 1.092-3.7 2.802-4.648a5.509 5.509 0 016.49.87.883.883 0 101.236-1.265zM19.45 10.459l-2.495-2.495h-.002a.829.829 0 00-1.174 0l-2.497 2.495a.834.834 0 000 1.177.834.834 0 001.177 0l1.004-1.004c-.056 1.899-1.091 3.699-2.802 4.648a5.507 5.507 0 01-6.49-.871.883.883 0 10-1.236 1.264 7.263 7.263 0 005.081 2.056c1.202 0 2.41-.296 3.504-.902 2.287-1.27 3.662-3.692 3.706-6.237l1.049 1.047a.833.833 0 001.176 0 .836.836 0 00-.001-1.178z"/></svg>