<svg xmlns="http://www.w3.org/2000/svg" viewBox="0 0 29.121 23.421">
  <path fill="#777" d="M26.621 22.921H2.5c-1.1 0-2-.899-2-2V2.5c0-1.101.9-2 2-2h24.121c1.102 0 2 .899 2 2v18.421c0 1.1-.898 2-2 2"/>
  <path fill="currentColor" opacity="0.1" d="M12.205 11.71a3.645 3.645 0 11-7.29 0 3.645 3.645 0 017.29 0"/>
  <path fill="#777" d="M8.561 15.73a4.025 4.025 0 01-4.02-4.02c0-2.216 1.803-4.02 4.02-4.02s4.02 1.803 4.02 4.02a4.025 4.025 0 01-4.02 4.02zm0-7.289c-1.803 0-3.27 1.467-3.27 3.27s1.467 3.27 3.27 3.27 3.27-1.467 3.27-3.27-1.468-3.27-3.27-3.27z"/>
  <path fill="currentColor" opacity="0.3" d="M15.205 11.71a3.645 3.645 0 11-7.29 0 3.645 3.645 0 017.29 0"/>
  <path fill="#777" d="M11.561 15.73a4.025 4.025 0 01-4.02-4.02 4.025 4.025 0 014.02-4.02 4.024 4.024 0 014.02 4.02 4.025 4.025 0 01-4.02 4.02zm0-7.289c-1.803 0-3.27 1.467-3.27 3.27s1.467 3.27 3.27 3.27 3.27-1.467 3.27-3.27-1.468-3.27-3.27-3.27z"/>
  <path fill="currentColor" opacity="0.5" d="M18.205 11.71a3.645 3.645 0 11-7.29 0 3.645 3.645 0 017.29 0"/>
  <path fill="#777" d="M14.561 15.73a4.025 4.025 0 01-4.02-4.02 4.025 4.025 0 014.02-4.02 4.024 4.024 0 014.02 4.02 4.025 4.025 0 01-4.02 4.02zm0-7.289c-1.803 0-3.27 1.467-3.27 3.27s1.467 3.27 3.27 3.27 3.27-1.467 3.27-3.27-1.468-3.27-3.27-3.27z"/>
  <path fill="currentColor" opacity="0.7" d="M21.205 11.71a3.645 3.645 0 11-7.29 0 3.645 3.645 0 017.29 0"/>
  <path fill="#777" d="M17.561 15.73a4.024 4.024 0 01-4.02-4.02c0-2.216 1.803-4.02 4.02-4.02s4.02 1.803 4.02 4.02a4.025 4.025 0 01-4.02 4.02zm0-7.289c-1.803 0-3.27 1.467-3.27 3.27s1.467 3.27 3.27 3.27 3.27-1.467 3.27-3.27-1.468-3.27-3.27-3.27z"/>
  <path fill="currentColor" d="M24.205 11.71a3.645 3.645 0 11-7.29 0 3.645 3.645 0 017.29 0"/>
  <path fill="#777" d="M20.561 15.73a4.024 4.024 0 01-4.02-4.02c0-2.216 1.803-4.02 4.02-4.02s4.02 1.803 4.02 4.02a4.025 4.025 0 01-4.02 4.02zm0-7.289c-1.803 0-3.27 1.467-3.27 3.27s1.467 3.27 3.27 3.27 3.27-1.467 3.27-3.27-1.468-3.27-3.27-3.27z"/>
</svg>