<svg xmlns="http://www.w3.org/2000/svg" viewBox="0 0 22 22">
  <circle cx="11" cy="11" r="2.457"/>
  <path d="M15.639 14.857a1.809 1.809 0 0 1 2.212-.243 7.748 7.748 0 1 0-14.599-3.615A7.748 7.748 0 0 0 11 18.748a7.707 7.707 0 0 0 4.49-1.441 1.82 1.82 0 0 1 .149-2.45zM11 16.748c-3.169 0-5.748-2.579-5.748-5.749S7.831 5.252 11 5.252 16.748 7.83 16.748 11 14.17 16.748 11 16.748z"/>
  <path d="M19.035 19.465 17.48 21.02a.824.824 0 1 1-1.207-1.125l.041-.041 1.555-1.557-1.557-1.555a.825.825 0 0 1 1.167-1.166l1.555 1.555 1.557-1.557a.824.824 0 1 1 1.166 1.168l-1.555 1.555 1.555 1.557a.824.824 0 0 1-1.166 1.166l-1.556-1.555z"/>
</svg>
