<svg xmlns="http://www.w3.org/2000/svg" viewBox="0 0 368.5 368.5">
  <path fill="currentColor" d="M308.045 291.241H193.099v-11.598c5.342-.396 11.625-1.362 18.848-2.9 7.223-1.536 10.835-3.443 10.835-5.726 0-.792-.075-1.684-.224-2.677-.149-.989-.572-2.327-1.264-4.015l-18.008-43.718h-72.844c-1.677 4.065-3.524 8.824-5.546 14.275a736.815 736.815 0 0 0-5.246 14.572c-1.873 5.554-2.983 9.568-3.33 12.045-.349 2.479-.52 4.215-.52 5.204 0 3.175 2.399 5.874 7.205 8.104 4.805 2.23 12.802 3.843 23.994 4.834v11.598H60.455v-11.598c3.271-.198 6.966-.719 11.079-1.563 4.112-.841 7.36-2.007 9.739-3.494 4.063-2.379 7.51-5.302 10.335-8.773 2.825-3.469 5.179-7.584 7.063-12.343 11.499-27.855 23.023-55.763 34.573-83.719a73389.172 73389.172 0 0 1 38.291-92.493h29.74c19.429 47.784 34.648 85.555 45.653 113.311 11.003 27.759 20.372 50.759 28.104 68.999 1.288 2.974 2.923 5.676 4.908 8.104 1.98 2.43 4.807 4.734 8.476 6.914 2.774 1.587 5.997 2.776 9.665 3.569 3.667.794 6.99 1.289 9.963 1.487v11.601zm-110.878-85.355-30.541-76.271-30.093 76.271h60.634z"/>
</svg>
