<svg xmlns="http://www.w3.org/2000/svg" width="446.664" height="52.023" viewBox="0 0 446.664 52.023"><path d="M44.611 50.994v-35.277l-14.893 20.315h-4.393l-14.893-20.246v35.208h-7.344v-45.572l-3.088-4.393h11.324l17.364 23.678 17.365-23.678h7.824v49.965h-9.266zm53.053 0h-28.62v-46.19l-2.196-3.775h33.424l-2.608 6.726h-19.354v14.07h21.962l-2.608 6.726h-19.354v15.717h21.962l-2.608 6.726zM144.678 7.893h-11.255v43.102h-9.266v-43.102h-13.864l2.608-6.863h34.385l-2.608 6.863zm42.758 43.101l-6.107-13.727h-20.865l-4.392 9.952 1.441 3.775h-10.913l20.453-46.19-1.648-3.775h10.021l22.1 49.965h-10.09zm-16.471-37.336l-7.482 16.884h14.963l-7.481-16.884zM238.019 35.552c0 2.563-.63 4.907-1.888 7.035-1.259 2.128-2.985 3.809-5.182 5.045l-4.118 2.333c-2.426 1.372-5.056 2.059-7.893 2.059-2.517 0-4.999-.343-7.446-1.029-2.448-.687-4.701-1.785-6.761-3.294l3.157-8.099c2.241 1.628 4.53 2.984 6.863 4.07 2.334 1.085 4.941 1.626 7.824 1.626 1.052 0 2.081-.182 3.089-.548 1.875-1.736 2.813-3.86 2.813-6.373 0-2.284-.572-4.054-1.716-5.311-1.145-1.257-2.563-2.25-4.255-2.981-1.693-.731-3.547-1.359-5.56-1.885-2.014-.525-3.867-1.245-5.56-2.159-1.693-.914-3.111-2.147-4.255-3.7-1.145-1.553-1.716-3.746-1.716-6.579 0-2.421.571-4.649 1.716-6.682 1.144-2.033 2.768-3.643 4.873-4.831.687-.411 1.383-.811 2.093-1.199.709-.388 1.407-.788 2.094-1.2 2.199-1.234 4.601-1.85 7.209-1.85 2.334 0 4.633.355 6.898 1.063 2.265.71 4.357 1.728 6.279 3.054l-3.088 8.03c-1.922-1.464-4.073-2.733-6.452-3.809-2.38-1.075-4.804-1.613-7.274-1.613-.779 0-1.603.161-2.472.48-.778.733-1.384 1.603-1.818 2.608-.436 1.007-.652 2.036-.652 3.088 0 2.196.572 3.867 1.716 5.01 1.144 1.144 2.574 2.071 4.29 2.78 1.716.71 3.579 1.338 5.594 1.887 2.013.549 3.878 1.304 5.594 2.265 1.716.961 3.145 2.265 4.289 3.912 1.143 1.649 1.715 3.914 1.715 6.797zm48.9 13.452c-1.35.732-2.676 1.315-3.98 1.75-1.304.435-2.711.755-4.221.961s-3.363.309-5.56.309c-3.432 0-6.691-.629-9.78-1.888-3.088-1.257-5.776-3.008-8.064-5.25-2.288-2.241-4.106-4.861-5.456-7.858-1.35-2.996-2.024-6.256-2.024-9.78 0-4.483 1.098-8.602 3.294-12.354 2.196-3.751 5.239-6.771 9.129-9.06.686-.412 1.372-.812 2.059-1.201.687-.388 1.373-.789 2.059-1.201 1.967-1.144 4.038-2.001 6.212-2.574 2.171-.572 4.402-.858 6.69-.858 2.379 0 4.667.229 6.863.686 2.196.458 4.393 1.19 6.589 2.196l-3.157 8.236c-2.288-1.463-4.507-2.562-6.657-3.294-2.151-.731-4.599-1.098-7.344-1.098-1.419 0-2.814.103-4.187.309-1.373.206-2.654.698-3.844 1.476-1.372.824-2.573 1.853-3.604 3.088-1.029 1.235-1.887 2.574-2.573 4.015s-1.201 2.94-1.544 4.496c-.344 1.556-.515 3.112-.515 4.667 0 2.837.525 5.491 1.578 7.961 1.052 2.471 2.493 4.645 4.324 6.52 1.829 1.877 3.98 3.353 6.451 4.427 2.471 1.076 5.124 1.613 7.961 1.613 2.563 0 4.85-.309 6.864-.926 2.013-.618 4.117-1.544 6.313-2.78l.893 4.667c-1.829 1.097-3.419 2.013-4.769 2.745zM355.587 24.776c0 4.576-1.076 8.728-3.226 12.457-2.151 3.729-5.172 6.76-9.06 9.094l-2.06 1.235s-1.372.801-2.059 1.167c-2.014 1.144-4.084 1.979-6.212 2.505-2.127.525-4.335.789-6.623.789-3.478 0-6.749-.629-9.814-1.888-3.065-1.257-5.73-3.008-7.995-5.25-2.266-2.241-4.05-4.861-5.354-7.858-1.304-2.996-1.956-6.256-1.956-9.78 0-4.53 1.074-8.658 3.226-12.388 2.15-3.729 5.17-6.76 9.06-9.094l2.059-1.235c.687-.412 1.373-.8 2.06-1.167 3.935-2.241 8.212-3.363 12.834-3.363 3.477 0 6.749.629 9.814 1.887 3.065 1.259 5.731 2.998 7.996 5.216 2.265 2.22 4.049 4.838 5.354 7.858 1.304 3.02 1.956 6.292 1.956 9.815zm-9.471 2.471c0-2.791-.492-5.433-1.476-7.927-.984-2.493-2.357-4.667-4.118-6.52-1.762-1.853-3.843-3.329-6.245-4.427s-5.045-1.647-7.928-1.647c-1.327 0-2.631.092-3.912.274-1.281.183-2.517.641-3.706 1.373-1.372.824-2.563 1.853-3.568 3.088-1.007 1.235-1.843 2.585-2.505 4.049-.664 1.465-1.156 2.986-1.476 4.564-.321 1.578-.48 3.146-.48 4.701 0 2.792.49 5.434 1.476 7.927.983 2.494 2.355 4.667 4.117 6.52s3.844 3.329 6.246 4.427 5.044 1.647 7.927 1.647c1.327 0 2.631-.079 3.912-.24 1.28-.16 2.516-.606 3.706-1.338 1.373-.824 2.563-1.864 3.569-3.123 1.006-1.258 1.841-2.619 2.505-4.083.663-1.464 1.155-2.986 1.476-4.564.319-1.578.48-3.145.48-4.701zm48.73 23.747l-14.551-19.423h-3.02v19.423h-9.266v-46.19l-2.196-3.775h21.002c2.013 0 3.912.355 5.696 1.064 1.784.71 3.34 1.705 4.667 2.985 1.327 1.282 2.379 2.78 3.157 4.496.777 1.716 1.167 3.603 1.167 5.662 0 2.563-.618 4.919-1.854 7.069-1.235 2.151-2.951 3.867-5.147 5.147-.778.458-1.556.892-2.333 1.304-.779.412-1.625.618-2.54.618l16.678 21.62h-11.46zm-2.814-33.424c0-1.373-.252-2.653-.755-3.843-.504-1.189-1.201-2.231-2.093-3.123-.893-.892-1.934-1.589-3.123-2.093-1.19-.503-2.471-.755-3.844-.755h-4.941v17.227h9.06c.365 0 .823-.045 1.373-.138.549-.091.982-.25 1.304-.48.457-.32.88-.755 1.27-1.304.389-.549.709-1.132.961-1.75.251-.618.446-1.258.583-1.922.136-.663.205-1.27.205-1.819zm52.023 33.424h-28.62v-46.19l-2.196-3.775h33.425l-2.608 6.726h-19.354v14.07h21.963l-2.608 6.726h-19.354v15.717h21.963l-2.611 6.726z"/></svg>