<svg xmlns="http://www.w3.org/2000/svg" viewBox="0 0 958.11 313.75">
  <g fill="currentColor">
    <path d="M66.33 66.38v151.94c0 28.33 3.58 45.64 21 51.09 2-9 2-19.55 2-28.41v-93.03l11.24.45h.73c11.77 0 50.2-3.06 50.2-42.45 0-38.48-37.62-39.6-41.91-39.6ZM21.64 21.63v217.53c0 34.34 5.56 53 35 53 8.67 0 14.65-1.63 18.88-4.06-30.8-13.56-30.81-51.89-30.81-69.73V44.76h64.89c22 0 63.6 12.8 63.6 61.22 0 42.75-31.61 60.57-62.16 63.6V241c0 9 0 19.54-1.84 29.79 6.66-.95 11.72-3.23 15.4-6.91 9.55-9.56 9.53-28.49 9.51-43.68v-1.85l.07-30.66 8.32-2c2.2-.53 55.06-14.24 55.06-80.26 0-72.92-52.5-83.81-83.8-83.81Zm35 292.12C0 313.75 0 261.47 0 239.16V0h113.72c24.73 0 105.42 7.61 105.42 105.44 0 43.39-19.35 68.63-35.58 82.16a101.73 101.73 0 0 1-27.83 16.4v16.1c0 18.18 0 43.1-15.85 59-9.13 9.15-22.1 13.79-38.55 13.79h-.46c-7 10.61-20 20.83-44.23 20.83"/>
    <circle cx="432.03" cy="128" r="2.02"/>
    <circle cx="899.16" cy="128.11" r="2.02"/>
    <path d="M308.09 190.06v-53.67h18.18c11.73 0 19 5.21 19 16.71s-9 16.26-19 16.26h-14.73v20.7Zm18.56-50.22h-15.11v26.07h15.11c8.43 0 15.18-3 15.18-12.81s-7.36-13.26-15.18-13.26Zm38.57-3.45h3.45v25.07h34v-25.07h3.45v53.67h-3.45v-25.15h-34v25.15h-3.45Zm65.09 0h3.45v53.67h-3.45Zm27.61 0h3.45v50.22h28.52v3.45h-32Zm51.91 0h3.45v25.07h34v-25.07h3.46v53.67h-3.46v-25.15h-34v25.15h-3.45Zm82.73-1.54 22.85 55.21h-4l-4.21-10.27h-29.44l-4.14 10.27h-4.06Zm-13.34 41.49h26.61l-13.27-32.52Zm54.59 13.72v-53.67h20c9.12 0 17.25 5 17.25 15.72a14.3 14.3 0 0 1-11.5 14.41l9.58 23.54h-3.68L656 167.52h-18.74v22.54Zm19-50.22h-15.55v24.23h15.57c8.36 0 14.8-3.22 14.8-12s-6.44-12.23-14.8-12.23Zm47.33-4.91 16.41 46.47 16.18-46.55 13 55.21h-3.29l-10.36-43.32-15.53 44.86-15.8-44.86-10.66 43.32h-3.29Zm62.11 28.29c0-15.25 11.5-27.75 25.53-27.75s25.54 12.5 25.54 27.75S801.81 191 787.78 191s-25.53-12.52-25.53-27.78Zm25.53-24.53c-12 0-22.31 11.27-22.31 24.53s10.27 24.54 22.31 24.54 22.32-11.27 22.32-24.54-10.28-24.53-22.32-24.53Zm45.47-3.84 36.81 46.86v-45.32h3.22v55.21l-36.81-47v45.47h-3.22Zm64.18 1.54h3.45v53.67h-3.45Zm27.57 0h32.13v3.45h-28.65v21.39h26.23v3.45h-26.23v21.93h29.45v3.45H925ZM308.09 266.74v-53.68h17.18c13.72 0 26.07 7.6 26.07 26.84 0 22.47-14.19 26.84-25.3 26.84Zm16.41-50.23h-13v46.78h13.73c15.41 0 22.31-7.82 22.31-23.39.04-14.41-7.01-23.39-23.04-23.39Zm46.77-3.45h32.13v3.45h-28.67v21.4H401v3.45h-26.27v21.93h29.44v3.45h-32.9Zm85.42 53.68v-53.68h18.18c11.73 0 19 5.22 19 16.72s-9 16.26-19 16.26h-14.73v20.7Zm18.56-50.23h-15.11v26.08h15.11c8.43 0 15.18-3 15.18-12.81s-7.36-13.27-15.18-13.27Zm50.45-4.98 22.85 55.21h-4l-4.22-10.27H510.9l-4.14 10.27h-4.06ZM512.36 253H539l-13.3-32.5ZM567 266.74v-53.68h20c9.12 0 17.25 5 17.25 15.72a14.3 14.3 0 0 1-11.5 14.42l9.58 23.54h-3.68l-9.5-22.54h-18.74v22.54Zm19-50.23h-15.59v24.24H586c8.36 0 14.8-3.22 14.8-12s-6.47-12.24-14.8-12.24Zm38.54-3.45H628v53.68h-3.45Zm43.86-.92a21.48 21.48 0 0 1 16 6.52l-2.69 2.3c-3.29-3.14-6-5.37-13.26-5.37-5.83 0-14 3-14.19 9.82-.38 12.65 32.9 8.82 32.9 27.45 0 10.2-9.2 14.8-18.71 14.8-9 0-15.34-3.3-19.33-9.2l3.07-2.07c2.76 3.83 7.21 7.82 16.26 7.82 8.89 0 15.26-3.68 15.26-10.58 0-16.87-32.9-11.89-32.9-27.84-.05-7.79 7.31-13.65 17.59-13.65ZM324.84 21.3l20.61 39.77 20.31-39.86 16.37 69.32h-13.19L362.1 59l-16.65 33.5L328.21 59l-6.93 31.58h-13.19Zm72.21 1.83h40.34v13h-27.34V50h24.26v13h-24.26v14.53h28.3v13h-41.3Zm55.26 0h48.62v13h-17.81v54.4h-13v-54.4h-17.81Zm81.83-1.92 29 69.32h-13.69L545.7 82h-23l-3.7 8.53h-13.74ZM528.37 69H540l-5.88-13.38Zm67.19-47c8.48 0 16.37 3.37 21.28 9.53l-8.57 9.15C605 36.13 598.84 35 595.56 35c-5.58 0-8.95 1.44-9.14 5.29-.29 11.46 32.64 5.1 32.64 31.39 0 12.8-11.56 20-23.5 20-11.26 0-19.25-4.14-24.26-11.55l10.5-8.38c4.43 4.34 8.18 6.94 13.76 6.94 6.84 0 10.5-3.18 10.5-7.51 0-12.91-32.64-5.88-32.64-30.62 0-11.26 9.24-18.56 22.14-18.56Zm68.65 0c9.82 0 15.11 3.27 19.25 6.83v14.43c-4.91-5.88-11.36-8.48-19.25-8.28-11.65.28-20.6 9.72-20.6 21.85 0 11.46 7.41 21.57 20.6 21.86 7 .09 16.08-3.09 20.22-8.57v14.63c-4.14 4-11.65 6.93-20.22 6.93-19.54 0-33.6-16.85-33.6-34.85 0-18.58 14.63-34.83 33.6-34.83Zm32.63 34.83c0-19.16 14.44-34.83 32.06-34.83S761 37.67 761 56.83s-14.48 34.85-32.1 34.85S696.84 76 696.84 56.83Zm32.06-22.14c-10.78 0-19.35 9.82-19.35 22.14S718.12 79 728.9 79s19.35-9.82 19.35-22.14-8.56-22.17-19.35-22.17Zm47.46 55.84v-67.4h25.13c12.33 0 21.67 8.57 21.67 21.47 0 8.38-3.28 16.18-12.23 19.74l15.59 26.19h-14.73l-14.34-24h-8.09v24Zm22.92-54.4h-9.92v17.43h9.92c7.6 0 10.88-3.76 10.88-9s-3.28-8.43-10.88-8.43Zm42.65-13h40.34v13h-27.35V50h24.27v13h-24.27v14.53h28.31v13h-41.3Z"/>
    <circle cx="626.26" cy="204.74" r="2.02"/>
  </g>
</svg>
