<svg xmlns="http://www.w3.org/2000/svg" viewBox="0 0 15.604 17.056"><path fill="currentColor" d="M14.098 7.041h-.385c.006-.124.01-1.108.01-1.234 0-2.939-2.131-5.807-5.807-5.807-3.675 0-5.807 2.608-5.807 5.807 0 .126.004 1.11.011 1.234h-.615c-.827 0-1.505.677-1.505 1.505v7.006c0 .826.678 1.504 1.505 1.504h12.592c.828 0 1.506-.678 1.506-1.504v-7.006c.001-.828-.677-1.505-1.505-1.505m-5.552 4.96v3.488h-1.641v-3.566c-.536-.283-.789-.846-.789-1.492 0-.933.755-1.688 1.686-1.688s1.686.755 1.686 1.688c0 .715-.312 1.326-.942 1.57m3.154-4.96h-7.568c-.01-.124-.017-1.107-.017-1.234 0-1.851 1.231-3.801 3.801-3.801 2.569 0 3.801 1.95 3.801 3.801 0 .127-.006 1.11-.017 1.234"/></svg>