<?xml version="1.0" encoding="utf-8"?>
<!-- Generator: Adobe Illustrator 16.0.0, SVG Export Plug-In . SVG Version: 6.00 Build 0)  -->
<!DOCTYPE svg PUBLIC "-//W3C//DTD SVG 1.1//EN" "http://www.w3.org/Graphics/SVG/1.1/DTD/svg11.dtd">
<svg version="1.1" id="Layer_1" xmlns="http://www.w3.org/2000/svg" xmlns:xlink="http://www.w3.org/1999/xlink" x="0px" y="0px"
	 width="15.604px" height="17.056px" viewBox="0 0 15.604 17.056" enable-background="new 0 0 15.604 17.056" xml:space="preserve">
<path fill="#FFFFFF" d="M14.098,7.041h-0.385c0.006-0.124,0.01-1.108,0.01-1.234C13.723,2.868,11.592,0,7.916,0
	C4.241,0,2.109,2.608,2.109,5.807c0,0.126,0.004,1.11,0.011,1.234H1.505C0.678,7.041,0,7.718,0,8.546v7.006
	c0,0.826,0.678,1.504,1.505,1.504h12.592c0.828,0,1.506-0.678,1.506-1.504V8.546C15.604,7.718,14.926,7.041,14.098,7.041
	 M8.546,12.001v3.488H6.905v-3.566c-0.536-0.283-0.789-0.846-0.789-1.492c0-0.933,0.755-1.688,1.686-1.688s1.686,0.755,1.686,1.688
	C9.488,11.146,9.176,11.757,8.546,12.001 M11.7,7.041H4.132c-0.01-0.124-0.017-1.107-0.017-1.234c0-1.851,1.231-3.801,3.801-3.801
	c2.569,0,3.801,1.95,3.801,3.801C11.717,5.934,11.711,6.917,11.7,7.041"/>
<g>
</g>
<g>
</g>
<g>
</g>
<g>
</g>
<g>
</g>
<g>
</g>
<g>
</g>
<g>
</g>
<g>
</g>
<g>
</g>
<g>
</g>
<g>
</g>
<g>
</g>
<g>
</g>
<g>
</g>
</svg>
