<svg version="1.1" xmlns="http://www.w3.org/2000/svg" xmlns:xlink="http://www.w3.org/1999/xlink" x="0px" y="0px"
	 width="29.121px" height="23.421px" viewBox="0 0 29.121 23.421" enable-background="new 0 0 29.121 23.421" xml:space="preserve">
<g>
	<path fill="#FFFFFF" d="M18.916,17.971l-0.385-0.447c1.79-1.537,2.817-3.771,2.817-6.128c0-2.266-0.963-4.441-2.639-5.968
		l0.337-0.37c1.87,1.704,2.897,3.771,2.897,6.3C21.944,13.986,20.912,16.257,18.916,17.971"/>
	<path fill="#FFFFFF" d="M18.916,17.971l-0.385-0.447c1.79-1.537,2.817-3.771,2.817-6.128c0-2.266-0.963-4.441-2.639-5.968
		l0.337-0.37c1.87,1.704,2.897,3.771,2.897,6.3C21.944,13.986,20.912,16.257,18.916,17.971"/>
	<path fill="#FFFFFF" d="M18.916,17.971l-0.385-0.447c1.79-1.537,2.817-3.771,2.817-6.128c0-2.266-0.963-4.441-2.639-5.968
		l0.337-0.37c1.87,1.704,2.897,3.771,2.897,6.3C21.944,13.986,20.912,16.257,18.916,17.971"/>
	<polygon fill="#FFFFFF" points="6.563,7.854 6.563,15.113 10.797,15.113 16.243,19.349 16.243,3.619 10.797,7.854 	"/>
	<path fill="#FFFFFF" d="M18.916,17.971l-0.385-0.447c1.79-1.537,2.817-3.771,2.817-6.128c0-2.266-0.963-4.441-2.639-5.968
		l0.337-0.37c1.87,1.704,2.897,3.771,2.897,6.3C21.944,13.986,20.912,16.257,18.916,17.971"/>
	<path fill="#FFFFFF" d="M18.916,17.971l-0.385-0.447c1.79-1.537,2.817-3.771,2.817-6.128c0-2.266-0.963-4.441-2.639-5.968
		l0.337-0.37c1.87,1.704,2.897,3.771,2.897,6.3C21.944,13.986,20.912,16.257,18.916,17.971"/>
	<polygon fill="#FFFFFF" points="6.563,7.854 6.563,15.113 10.797,15.113 16.243,19.349 16.243,3.619 10.797,7.854 	"/>
	<path fill="#FFFFFF" d="M17.697,15.928l-0.399-0.465c1.178-1.013,1.854-2.484,1.854-4.037c0-1.493-0.634-2.927-1.738-3.932
		l0.414-0.455c1.231,1.123,1.938,2.722,1.938,4.387C19.767,13.158,19.011,14.799,17.697,15.928"/>
	<path fill="#FFFFFF" d="M17.697,15.928l-0.399-0.465c1.178-1.013,1.854-2.484,1.854-4.037c0-1.493-0.634-2.927-1.738-3.932
		l0.414-0.455c1.231,1.123,1.938,2.722,1.938,4.387C19.767,13.158,19.011,14.799,17.697,15.928"/>
</g>
</svg>
