<svg version="1.1" xmlns="http://www.w3.org/2000/svg" xmlns:xlink="http://www.w3.org/1999/xlink" x="0px" y="0px"
	 width="29.121px" height="23.421px" viewBox="0 0 29.121 23.421" enable-background="new 0 0 29.121 23.421" xml:space="preserve">
<g>
	<path fill="#808080" d="M26.621,22.921H2.5c-1.1,0-2-0.899-2-2V2.5c0-1.101,0.9-2,2-2h24.121c1.101,0,2,0.899,2,2v18.421
		C28.621,22.021,27.722,22.921,26.621,22.921"/>
	<path fill="none" stroke="#FFFFFF" stroke-miterlimit="10" d="M26.621,22.921H2.5c-1.1,0-2-0.899-2-2V2.5c0-1.101,0.9-2,2-2h24.121
		c1.101,0,2,0.899,2,2v18.421C28.621,22.021,27.722,22.921,26.621,22.921z"/>
	<polygon fill="#FFFFFF" points="11.594,12.861 11.594,19.034 16.415,15.948 	"/>
	<rect x="16.416" y="12.861" fill="#FFFFFF" width="1.175" height="6.173"/>
</g>
</svg>
