<svg version="1.1" xmlns="http://www.w3.org/2000/svg" xmlns:xlink="http://www.w3.org/1999/xlink" x="0px" y="0px"
	 width="29.121px" height="23.421px" viewBox="0 0 29.121 23.421" enable-background="new 0 0 29.121 23.421" xml:space="preserve">
<g>
	<path fill="#808080" d="M26.621,22.921H2.5c-1.1,0-2-0.899-2-2V2.5c0-1.101,0.9-2,2-2h24.121c1.101,0,2,0.899,2,2v18.421
		C28.621,22.021,27.722,22.921,26.621,22.921"/>
	<path fill="none" stroke="#FFFFFF" stroke-miterlimit="10" d="M26.621,22.921H2.5c-1.1,0-2-0.899-2-2V2.5c0-1.101,0.9-2,2-2h24.121
		c1.101,0,2,0.899,2,2v18.421C28.621,22.021,27.722,22.921,26.621,22.921z"/>
	<path fill="#FFFFFF" d="M10.799,15.955c0,0.869-0.704,1.574-1.573,1.574c-0.87,0-1.574-0.705-1.574-1.574s0.704-1.574,1.574-1.574
		C10.095,14.381,10.799,15.086,10.799,15.955"/>
	<path fill="#FFFFFF" d="M16.072,15.955c0,0.869-0.705,1.574-1.574,1.574c-0.869,0-1.574-0.705-1.574-1.574s0.705-1.574,1.574-1.574
		C15.367,14.381,16.072,15.086,16.072,15.955"/>
	<path fill="#FFFFFF" d="M20.8,15.955c0,0.453-0.368,0.821-0.821,0.821c-0.454,0-0.821-0.368-0.821-0.821s0.367-0.821,0.821-0.821
		C20.432,15.134,20.8,15.502,20.8,15.955"/>
</g>
</svg>
