<?xml version="1.0" encoding="utf-8"?>
<!-- Generator: Adobe Illustrator 24.2.0, SVG Export Plug-In . SVG Version: 6.00 Build 0)  -->
<svg version="1.1" id="Calque_1" xmlns="http://www.w3.org/2000/svg" xmlns:xlink="http://www.w3.org/1999/xlink" x="0px" y="0px"
	 viewBox="0 0 528.514 407.632" style="enable-background:new 0 0 528.514 407.632;" xml:space="preserve">
<style type="text/css">
	.color1{fill:#A3364D;}
	.color2{fill:#404042;}
</style>
<path class="color2" d="M167.979,26.061c0,0,0.443-11.478,2.665-11.701c2.222-0.222,5.001,1.111,9.111,8.444
	c4.111,7.333,8.111,14.667,8.111,14.667s1.778,3.889,1.889-1c0.111-4.889,0-23.778,0-23.778s1.444-5.778,5.444,0
	c4,5.778,11.222,22.222,11.222,22.222s1.222,4.667,1.222-3.222c0-7.889,0-24.222,1.778-24.333c1.778-0.111,3.222,0.111,4.444,2.889
	c1.223,2.778,8.889,21.223,8.889,21.223s2.556,5.333,3-1.445c0.444-6.778,2.222-22.688,2.222-22.688S230.2,2.695,233.2,8.25
	s9,22.555,9,22.555s1.223,3.889,2.111-1.889c0.889-5.778,4.444-22.889,4.444-22.889s2.555-5.333,5.222,1.667
	c2.667,7,5.889,23.111,5.889,23.111s1.222,4.889,2.667-3.111s5.222-22.889,5.222-22.889s2.111-5.444,4.333,0.445
	c2.222,5.889,4.889,25,4.889,25s1.667,5.111,3.667-3.333c2-8.444,5.333-24.404,5.333-24.404s0.555-2.818,1.889-2.485
	c1.334,0.333,2.557,2.334,2.89,6.445c0.333,4.111,2.555,22.666,2.555,22.666s0.222,2.444,2,2.222c1.778-0.222,3,0.445,3.556-1.667
	c0.556-2.111,6-25.223,6-25.223s0.778-3.666,2.111-3.333c1.333,0.333,2.444,2,2.444,5.333c0,3.334,2.333,25.223,4.333,24.889
	s1.778-1.556,2.667-4.889s6.667-19.777,6.667-19.777s1.332-3.333,2.555-2.556c1.223,0.778,1.335,3.334,1.445,6.222
	c0.11,2.889,1.777,23.778,1.777,23.778s0.445,1.889,1.223,1.667c0.777-0.222,1.667-0.222,2.889-3.222c1.222-3,8.667-23,8.667-23
	s0.889-3,2.333-2.555c1.444,0.444,2,2.11,1.889,5.777s0.556,22.445,0.556,22.445s1.333,2.556,2.556-0.778
	c1.223-3.333,9.333-20.889,9.333-20.889s1.555-4,2.777-3.444c1.223,0.556,1.889,0.889,1.889,2.889s-0.778,21.667,0,23.889
	c0.778,2.222,1.557,3.889,2.778,1.222c1.222-2.667,9.889-23.222,9.889-23.222s1.112-3.223,2.223-2.889
	c1.11,0.333,2.667,1.667,2,6.445c-0.667,4.777-0.013,19.965,0.16,21.038c0.173,1.073,0.506,3.073,1.617,0.628
	c1.111-2.444,10.444-21.111,10.444-21.111s1.668-4,2.778-3.778c1.11,0.223,2.443,1,2.222,2.889c-0.222,1.889-3.333,22.111-1,24
	c0,0,0.89,1.666,3.111-4.334c2.222-6,7.333-17.333,7.333-17.333s1.111-2.667,2.111-2.223c1,0.445,2.11,0.778,1.889,3.778
	c-0.222,3-0.832,21.445,0.028,22.445c0.86,1,9.86-14.778,11.527-18.223c1.667-3.444,2.444-3.111,4-2.667
	c1.556,0.444,1.667,2.778,1.111,7.222c-0.556,4.444-0.725,17.666,0.305,17.666s3.584-6.111,8.14-12.666
	c4.556-6.556,6.557-7.334,7.778-6.222c1.222,1.111,2.417,3.732,0.993,9.404c-1.424,5.672-114.659,350.041-116.215,351.485
	c0,0-4.777,1.44-5-1.226c-0.223-2.666-0.777-0.667-1.444,0c-0.667,0.667-3.222,0.89-3.333-0.777c-0.111-1.667-1-0.89-2-0.111
	c-1,0.778-3.001-0.445-3.334-1.667c-0.333-1.222-1.111,1.112-2,0.89c-0.889-0.223-1.666-0.778-1.889-1.778
	c-0.223-1-1.328-0.11-2.164,1.001c-0.836,1.111-3.947,0.333-3.836-1.556c0.111-1.889-1.333-0.555-2.333,0.223
	c-1,0.777-1.999,0.11-2.333-0.778c-0.334-0.889-1.001-0.223-1.778,0.444c-0.777,0.667-3.555,0.334-3.666-0.666
	c-0.111-1-1.778-1.001-2.667-0.223c-0.889,0.778-3.11,0.445-3.333-0.777c-0.223-1.223-1.667-0.334-2.556,0.666
	s-2.445,0.112-2.667-0.666c-0.222-0.778-1.111-0.222-2,0.556c-0.889,0.777-2.556,0.555-3-0.445c-0.444-1-1.444,0.111-2.111,0.667
	c-0.667,0.556-1.889-0.001-2.778-0.667c-0.889-0.666-0.667,0.445-1.778,0.778c-1.111,0.333-2-0.333-2.889-0.556
	c-0.889-0.223-0.999,1.11-2.111,0.889c-1.111-0.222-1.444-1.444-2-1c-0.556,0.444-2.223,2.112-3.333,0.778
	c-1.111-1.334-0.777,0.333-1.333,0.444c-0.556,0.111-2.223,0.556-2.667-0.556c-0.444-1.111-0.555,0.443-1.667,0.777
	c-1.111,0.334-3.456-0.373-4.456-1.468C240.164,373.175,157.936-18.652,167.979,26.061z"/>
<path class="color1" d="M175.962,59.906c0,0-7.344-28.417-7.982-33.844c-0.638-5.428,0-10.855,0-10.855l-39.591,8.94
	c0,0-42.784,8.621-50.447,17.88s-7.024,8.302-14.048,10.217c-7.024,1.915-60.118,12.625-63.219,39.91
	c-1.597,14.048-0.29,15.628,3.193,34.164c3.518,18.723,61.302,248.722,61.302,248.722s4.15,20.754,26.181,21.073
	c22.031,0.319,54.279-2.873,62.261,1.277c7.982,4.15,19.476,7.024,29.055,4.15c9.579-2.874,67.369-16.603,67.369-16.603
	L175.962,59.906z"/>
<path class="color1" d="M446.534,30.805l44,17.333c0,0,42,15.667,37.667,34.667S426.868,385.805,426.868,385.805
	s-7.667,25.668-32,21.334c-24.333-4.334-66.667-16.667-66.667-16.667L446.534,30.805z"/>
<path class="color2" d="M45.736,232.832c0,3.654-2.963,6.618-6.618,6.618s-6.618-2.964-6.618-6.618c0-3.655,2.963-6.618,6.618-6.618
	S45.736,229.177,45.736,232.832z"/>
<path class="color2" d="M58.931,238.884c0,3.654-2.963,6.618-6.618,6.618c-3.655,0-6.618-2.964-6.618-6.618
	c0-3.654,2.963-6.617,6.618-6.617C55.968,232.267,58.931,235.229,58.931,238.884z"/>
<path class="color2" d="M72.35,244.541c0,3.654-2.963,6.618-6.618,6.618c-3.655,0-6.618-2.964-6.618-6.618
	c0-3.655,2.963-6.618,6.618-6.618C69.387,237.923,72.35,240.886,72.35,244.541z"/>
<path class="color2" d="M86.557,250.065c0,3.654-2.963,6.618-6.618,6.618c-3.655,0-6.618-2.964-6.618-6.618
	c0-3.654,2.963-6.617,6.618-6.617C83.594,243.448,86.557,246.411,86.557,250.065z"/>
<path class="color2" d="M50.36,250.45c0,3.654-2.963,6.618-6.618,6.618s-6.618-2.964-6.618-6.618c0-3.655,2.963-6.618,6.618-6.618
	S50.36,246.795,50.36,250.45z"/>
<path class="color2" d="M63.555,256.502c0,3.654-2.963,6.618-6.618,6.618s-6.618-2.964-6.618-6.618s2.963-6.617,6.618-6.617
	S63.555,252.848,63.555,256.502z"/>
<circle class="color2" cx="70.356" cy="262.159" r="6.618"/>
<path class="color2" d="M91.181,267.684c0,3.654-2.963,6.618-6.618,6.618c-3.655,0-6.618-2.964-6.618-6.618s2.963-6.617,6.618-6.617
	C88.218,261.066,91.181,264.029,91.181,267.684z"/>
<circle class="color2" cx="46.908" cy="267.684" r="6.618"/>
<path class="color2" d="M66.721,273.735c0,3.654-2.963,6.618-6.618,6.618s-6.618-2.964-6.618-6.618s2.963-6.617,6.618-6.617
	S66.721,270.081,66.721,273.735z"/>
<circle class="color2" cx="73.522" cy="279.393" r="6.618"/>
<path class="color2" d="M94.347,284.917c0,3.654-2.963,6.618-6.618,6.618s-6.618-2.964-6.618-6.618s2.963-6.617,6.618-6.617
	S94.347,281.263,94.347,284.917z"/>
<circle class="color2" cx="51.939" cy="284.917" r="6.618"/>
<path class="color2" d="M71.752,290.969c0,3.654-2.963,6.618-6.618,6.618s-6.618-2.964-6.618-6.618s2.963-6.617,6.618-6.617
	S71.752,287.314,71.752,290.969z"/>
<circle class="color2" cx="78.553" cy="296.626" r="6.618"/>
<path class="color2" d="M98.406,302.151c0,3.654-2.963,6.618-6.618,6.618c-3.655,0-6.618-2.964-6.618-6.618s2.963-6.617,6.618-6.617
	C95.443,295.534,98.406,298.497,98.406,302.151z"/>
<circle class="color2" cx="56.563" cy="302.151" r="6.618"/>
<path class="color2" d="M76.376,308.203c0,3.654-2.963,6.618-6.618,6.618s-6.618-2.964-6.618-6.618s2.963-6.617,6.618-6.617
	S76.376,304.549,76.376,308.203z"/>
<path class="color2" d="M89.794,313.86c0,3.654-2.963,6.618-6.618,6.618s-6.618-2.964-6.618-6.618c0-3.655,2.963-6.618,6.618-6.618
	S89.794,310.205,89.794,313.86z"/>
<path class="color2" d="M102.297,319.355c0,3.654-2.963,6.618-6.618,6.618c-3.655,0-6.618-2.964-6.618-6.618
	s2.963-6.617,6.618-6.617C99.334,312.738,102.297,315.701,102.297,319.355z"/>
<ellipse transform="matrix(1 -0.0014 0.0014 1 -0.4395 0.0821)" class="color2" cx="59.529" cy="319.922" rx="6.618" ry="6.618"/>
<path class="color2" d="M79.342,325.974c0,3.654-2.963,6.618-6.618,6.618c-3.655,0-6.618-2.964-6.618-6.618
	c0-3.654,2.963-6.617,6.618-6.617C76.379,319.357,79.342,322.319,79.342,325.974z"/>
<path class="color2" d="M92.76,331.631c0,3.654-2.963,6.618-6.618,6.618s-6.618-2.964-6.618-6.618c0-3.655,2.963-6.618,6.618-6.618
	S92.76,327.976,92.76,331.631z"/>
<path class="color2" d="M106.968,337.155c0,3.654-2.963,6.618-6.618,6.618s-6.618-2.964-6.618-6.618
	c0-3.654,2.963-6.617,6.618-6.617S106.968,333.501,106.968,337.155z"/>
<path class="color2" d="M70.173,337.156c0,3.654-2.963,6.618-6.618,6.618s-6.618-2.964-6.618-6.618c0-3.655,2.963-6.618,6.618-6.618
	S70.173,333.501,70.173,337.156z"/>
<path class="color2" d="M83.368,343.208c0,3.654-2.963,6.618-6.618,6.618c-3.655,0-6.618-2.964-6.618-6.618
	c0-3.654,2.963-6.617,6.618-6.617C80.405,336.591,83.368,339.554,83.368,343.208z"/>
<path class="color2" d="M96.787,348.865c0,3.654-2.963,6.618-6.618,6.618c-3.655,0-6.618-2.964-6.618-6.618
	c0-3.655,2.963-6.618,6.618-6.618C93.824,342.247,96.787,345.21,96.787,348.865z"/>
<path class="color2" d="M110.994,354.39c0,3.654-2.963,6.618-6.618,6.618c-3.655,0-6.618-2.964-6.618-6.618s2.963-6.617,6.618-6.617
	C108.031,347.772,110.994,350.735,110.994,354.39z"/>
<path class="color2" d="M73.937,354.391c0,3.654-2.963,6.618-6.618,6.618c-3.655,0-6.618-2.964-6.618-6.618
	c0-3.655,2.963-6.618,6.618-6.618C70.974,347.772,73.937,350.735,73.937,354.391z"/>
<path class="color2" d="M87.132,360.442c0,3.654-2.963,6.618-6.618,6.618s-6.618-2.964-6.618-6.618s2.963-6.617,6.618-6.617
	S87.132,356.788,87.132,360.442z"/>
<path class="color2" d="M100.55,366.1c0,3.654-2.963,6.618-6.618,6.618c-3.655,0-6.618-2.964-6.618-6.618
	c0-3.655,2.963-6.618,6.618-6.618C97.587,359.481,100.55,362.444,100.55,366.1z"/>
<path class="color2" d="M78.37,370.57c0,3.654-2.963,6.618-6.618,6.618s-6.618-2.964-6.618-6.618s2.963-6.617,6.618-6.617
	S78.37,366.916,78.37,370.57z"/>
<path class="color2" d="M91.788,377.188c0,3.654-2.963,6.618-6.618,6.618s-6.618-2.964-6.618-6.618c0-3.654,2.963-6.617,6.618-6.617
	S91.788,373.534,91.788,377.188z"/>
<path class="color2" d="M41.658,215.571c0,3.654-2.963,6.618-6.618,6.618c-3.655,0-6.618-2.964-6.618-6.618
	c0-3.655,2.963-6.618,6.618-6.618C38.695,208.953,41.658,211.916,41.658,215.571z"/>
<path class="color2" d="M54.854,221.623c0,3.654-2.963,6.618-6.618,6.618c-3.655,0-6.618-2.964-6.618-6.618
	c0-3.654,2.963-6.617,6.618-6.617C51.891,215.005,54.854,217.968,54.854,221.623z"/>
<path class="color2" d="M68.272,227.28c0,3.654-2.963,6.618-6.618,6.618c-3.655,0-6.618-2.963-6.618-6.618
	c0-3.655,2.963-6.618,6.618-6.618C65.309,220.662,68.272,223.624,68.272,227.28z"/>
<path class="color2" d="M82.479,232.804c0,3.654-2.963,6.619-6.618,6.619s-6.618-2.965-6.618-6.619c0-3.654,2.963-6.617,6.618-6.617
	S82.479,229.15,82.479,232.804z"/>
<path class="color2" d="M37.125,198.337c0,3.654-2.963,6.618-6.618,6.618c-3.655,0-6.618-2.964-6.618-6.618
	c0-3.655,2.963-6.618,6.618-6.618C34.162,191.72,37.125,194.683,37.125,198.337z"/>
<path class="color2" d="M50.32,204.389c0,3.654-2.963,6.618-6.618,6.618s-6.618-2.964-6.618-6.618s2.963-6.617,6.618-6.617
	S50.32,200.735,50.32,204.389z"/>
<circle class="color2" cx="57.121" cy="210.046" r="6.618"/>
<path class="color2" d="M77.946,215.571c0,3.654-2.963,6.618-6.618,6.618c-3.655,0-6.618-2.964-6.618-6.618
	c0-3.654,2.963-6.617,6.618-6.617C74.983,208.954,77.946,211.916,77.946,215.571z"/>
<path class="color2" d="M33.449,180.538c0,3.654-2.963,6.618-6.618,6.618c-3.655,0-6.618-2.964-6.618-6.618
	c0-3.655,2.963-6.618,6.618-6.618C30.486,173.92,33.449,176.883,33.449,180.538z"/>
<path class="color2" d="M46.644,186.59c0,3.654-2.963,6.618-6.618,6.618c-3.655,0-6.618-2.964-6.618-6.618
	c0-3.654,2.963-6.617,6.618-6.617C43.682,179.973,46.644,182.936,46.644,186.59z"/>
<path class="color2" d="M60.063,192.247c0,3.654-2.963,6.618-6.618,6.618c-3.655,0-6.618-2.964-6.618-6.618
	c0-3.655,2.963-6.618,6.618-6.618C57.1,185.629,60.063,188.592,60.063,192.247z"/>
<path class="color2" d="M74.271,197.771c0,3.654-2.963,6.618-6.618,6.618c-3.655,0-6.618-2.964-6.618-6.618
	c0-3.654,2.963-6.617,6.618-6.617C71.308,191.154,74.271,194.117,74.271,197.771z"/>
<path class="color2" d="M29.311,163.541c0,3.654-2.963,6.618-6.618,6.618c-3.655,0-6.618-2.964-6.618-6.618
	c0-3.655,2.963-6.618,6.618-6.618C26.349,156.923,29.311,159.886,29.311,163.541z"/>
<path class="color2" d="M42.507,169.593c0,3.654-2.963,6.618-6.618,6.618s-6.618-2.964-6.618-6.618c0-3.654,2.963-6.617,6.618-6.617
	S42.507,165.938,42.507,169.593z"/>
<path class="color2" d="M55.925,175.25c0,3.654-2.963,6.618-6.618,6.618s-6.618-2.964-6.618-6.618c0-3.655,2.963-6.618,6.618-6.618
	S55.925,171.595,55.925,175.25z"/>
<path class="color2" d="M70.133,180.774c0,3.654-2.963,6.618-6.618,6.618c-3.655,0-6.618-2.964-6.618-6.618
	c0-3.654,2.963-6.617,6.618-6.617C67.17,174.157,70.133,177.12,70.133,180.774z"/>
<path class="color2" d="M25.325,146.399c0,3.654-2.963,6.618-6.618,6.618c-3.655,0-6.618-2.964-6.618-6.618
	c0-3.655,2.963-6.618,6.618-6.618C22.362,139.781,25.325,142.744,25.325,146.399z"/>
<path class="color2" d="M38.521,151.793c0,3.654-2.963,6.618-6.618,6.618c-3.655,0-6.618-2.964-6.618-6.618
	c0-3.654,2.963-6.617,6.618-6.617C35.558,145.176,38.521,148.139,38.521,151.793z"/>
<path class="color2" d="M51.939,157.45c0,3.654-2.963,6.618-6.618,6.618c-3.655,0-6.618-2.964-6.618-6.618
	c0-3.655,2.963-6.618,6.618-6.618C48.976,150.832,51.939,153.795,51.939,157.45z"/>
<path class="color2" d="M66.146,162.975c0,3.654-2.963,6.618-6.618,6.618s-6.618-2.964-6.618-6.618s2.963-6.617,6.618-6.617
	S66.146,159.32,66.146,162.975z"/>
<path class="color2" d="M20.214,129.165c0,3.654-2.963,6.618-6.618,6.618s-6.618-2.964-6.618-6.618c0-3.655,2.963-6.618,6.618-6.618
	S20.214,125.511,20.214,129.165z"/>
<path class="color2" d="M33.409,135.217c0,3.654-2.963,6.618-6.618,6.618s-6.618-2.964-6.618-6.618s2.963-6.617,6.618-6.617
	S33.409,131.563,33.409,135.217z"/>
<ellipse transform="matrix(0.0242 -0.9997 0.9997 0.0242 -101.5951 177.6685)" class="color2" cx="40.21" cy="140.875" rx="6.618" ry="6.618"/>
<path class="color2" d="M61.035,146.399c0,3.654-2.963,6.618-6.618,6.618c-3.655,0-6.618-2.964-6.618-6.618s2.963-6.617,6.618-6.617
	C58.072,139.782,61.035,142.745,61.035,146.399z"/>
<path class="color2" d="M16.714,111.366c0,3.654-2.963,6.618-6.618,6.618s-6.618-2.964-6.618-6.618c0-3.655,2.963-6.618,6.618-6.618
	S16.714,107.711,16.714,111.366z"/>
<path class="color2" d="M29.909,117.418c0,3.654-2.963,6.618-6.618,6.618s-6.618-2.964-6.618-6.618c0-3.654,2.963-6.617,6.618-6.617
	S29.909,113.764,29.909,117.418z"/>
<path class="color2" d="M43.328,123.075c0,3.654-2.963,6.618-6.618,6.618s-6.618-2.964-6.618-6.618c0-3.655,2.963-6.618,6.618-6.618
	S43.328,119.42,43.328,123.075z"/>
<path class="color2" d="M57.535,128.6c0,3.654-2.963,6.618-6.618,6.618c-3.655,0-6.618-2.964-6.618-6.618s2.963-6.617,6.618-6.617
	C54.572,121.982,57.535,124.945,57.535,128.6z"/>
<path class="color2" d="M25.325,99.224c0,3.654-2.963,6.618-6.618,6.618c-3.655,0-6.618-2.964-6.618-6.618
	c0-3.655,2.963-6.618,6.618-6.618C22.362,92.606,25.325,95.569,25.325,99.224z"/>
<path class="color2" d="M38.521,105.275c0,3.654-2.963,6.618-6.618,6.618c-3.655,0-6.618-2.964-6.618-6.618
	c0-3.654,2.963-6.617,6.618-6.617C35.558,98.658,38.521,101.621,38.521,105.275z"/>
<path class="color2" d="M51.939,110.933c0,3.654-2.963,6.618-6.618,6.618c-3.655,0-6.618-2.964-6.618-6.618
	c0-3.655,2.963-6.618,6.618-6.618C48.976,104.314,51.939,107.277,51.939,110.933z"/>
<path class="color2" d="M65.732,68.472c0,0,12.084-2.999,13.61-0.333l77.695,321.109c0,0-12.976,1.225-15.309-5.441L65.732,68.472z"
	/>
<polygon class="color2" points="84.563,62.139 104.376,57.472 181.534,383.807 162.534,389.248 "/>
<polygon class="color2" points="153.927,117.984 168.201,113.472 216.868,305.472 202.868,308.203 "/>
<path class="color2" d="M456.652,134.563c0,2.305-1.869,4.174-4.175,4.174c-2.305,0-4.174-1.869-4.174-4.174
	s1.869-4.174,4.174-4.174C454.783,130.389,456.652,132.258,456.652,134.563z"/>
<path class="color2" d="M469.062,131.103c0,2.305-1.869,4.174-4.175,4.174c-2.305,0-4.174-1.869-4.174-4.174
	c0-2.305,1.869-4.174,4.174-4.174C467.193,126.929,469.062,128.798,469.062,131.103z"/>
<path class="color2" d="M481.303,127.267c0,2.305-1.869,4.174-4.175,4.174c-2.305,0-4.174-1.869-4.174-4.174
	s1.869-4.174,4.174-4.174C479.434,123.093,481.303,124.962,481.303,127.267z"/>
<path class="color2" d="M491.853,123.093c0,2.305-1.869,4.174-4.175,4.174c-2.305,0-4.174-1.869-4.174-4.174
	s1.869-4.174,4.174-4.174C489.984,118.918,491.853,120.788,491.853,123.093z"/>
<path class="color2" d="M504.114,118.918c0,2.305-1.869,4.174-4.175,4.174c-2.305,0-4.174-1.869-4.174-4.174
	c0-2.305,1.869-4.174,4.174-4.174C502.245,114.744,504.114,116.613,504.114,118.918z"/>
<path class="color2" d="M515.999,115.307c0,2.305-1.869,4.174-4.175,4.174c-2.305,0-4.174-1.869-4.174-4.174
	c0-2.305,1.869-4.174,4.174-4.174C514.129,111.133,515.999,113.002,515.999,115.307z"/>
<path class="color2" d="M451.934,148.935c0,2.305-1.869,4.174-4.175,4.174c-2.305,0-4.174-1.869-4.174-4.174
	c0-2.305,1.869-4.174,4.174-4.174C450.065,144.761,451.934,146.63,451.934,148.935z"/>
<path class="color2" d="M464.344,145.475c0,2.305-1.869,4.174-4.175,4.174c-2.305,0-4.174-1.869-4.174-4.174
	c0-2.305,1.869-4.174,4.174-4.174C462.475,141.3,464.344,143.169,464.344,145.475z"/>
<path class="color2" d="M476.585,141.639c0,2.305-1.869,4.174-4.175,4.174c-2.305,0-4.174-1.869-4.174-4.174
	c0-2.305,1.869-4.174,4.174-4.174C474.716,137.464,476.585,139.333,476.585,141.639z"/>
<path class="color2" d="M487.135,137.464c0,2.305-1.869,4.174-4.175,4.174c-2.305,0-4.174-1.869-4.174-4.174
	c0-2.305,1.869-4.174,4.174-4.174C485.266,133.29,487.135,135.159,487.135,137.464z"/>
<path class="color2" d="M499.396,133.29c0,2.305-1.869,4.174-4.175,4.174c-2.305,0-4.174-1.869-4.174-4.174
	c0-2.305,1.869-4.174,4.174-4.174C497.527,129.116,499.396,130.985,499.396,133.29z"/>
<path class="color2" d="M511.281,129.679c0,2.305-1.869,4.174-4.175,4.174c-2.305,0-4.174-1.869-4.174-4.174
	c0-2.305,1.869-4.174,4.174-4.174C509.412,125.504,511.281,127.374,511.281,129.679z"/>
<path class="color2" d="M447.456,163.222c0,2.305-1.869,4.174-4.175,4.174c-2.305,0-4.174-1.869-4.174-4.174
	c0-2.305,1.869-4.174,4.174-4.174C445.586,159.048,447.456,160.917,447.456,163.222z"/>
<path class="color2" d="M459.866,159.762c0,2.305-1.869,4.174-4.175,4.174c-2.305,0-4.174-1.869-4.174-4.174
	c0-2.305,1.869-4.174,4.174-4.174C457.997,155.587,459.866,157.457,459.866,159.762z"/>
<path class="color2" d="M472.107,155.926c0,2.305-1.869,4.174-4.175,4.174c-2.305,0-4.174-1.869-4.174-4.174
	s1.869-4.174,4.174-4.174C470.238,151.751,472.107,153.621,472.107,155.926z"/>
<path class="color2" d="M482.657,151.751c0,2.305-1.869,4.174-4.175,4.174c-2.305,0-4.174-1.869-4.174-4.174
	c0-2.305,1.869-4.174,4.174-4.174C480.788,147.577,482.657,149.446,482.657,151.751z"/>
<path class="color2" d="M494.917,147.577c0,2.305-1.869,4.174-4.175,4.174c-2.305,0-4.174-1.869-4.174-4.174
	c0-2.305,1.869-4.174,4.174-4.174C493.048,143.403,494.917,145.272,494.917,147.577z"/>
<path class="color2" d="M506.802,143.966c0,2.305-1.869,4.174-4.175,4.174c-2.305,0-4.174-1.869-4.174-4.174
	c0-2.305,1.869-4.174,4.174-4.174C504.933,139.792,506.802,141.661,506.802,143.966z"/>
<path class="color2" d="M442.456,177.514c0,2.305-1.869,4.174-4.175,4.174c-2.305,0-4.174-1.869-4.174-4.174
	c0-2.305,1.869-4.174,4.174-4.174C440.586,173.339,442.456,175.208,442.456,177.514z"/>
<path class="color2" d="M454.866,174.053c0,2.305-1.869,4.174-4.175,4.174c-2.305,0-4.174-1.869-4.174-4.174
	c0-2.305,1.869-4.174,4.174-4.174C452.997,169.879,454.866,171.748,454.866,174.053z"/>
<path class="color2" d="M467.107,170.217c0,2.305-1.869,4.174-4.175,4.174c-2.305,0-4.174-1.869-4.174-4.174
	c0-2.305,1.869-4.174,4.174-4.174C465.238,166.043,467.107,167.912,467.107,170.217z"/>
<path class="color2" d="M477.657,166.043c0,2.305-1.869,4.174-4.175,4.174c-2.305,0-4.174-1.869-4.174-4.174
	c0-2.305,1.869-4.174,4.174-4.174C475.788,161.869,477.657,163.738,477.657,166.043z"/>
<path class="color2" d="M489.917,161.869c0,2.305-1.869,4.174-4.175,4.174c-2.305,0-4.174-1.869-4.174-4.174
	c0-2.305,1.869-4.174,4.174-4.174C488.048,157.694,489.917,159.563,489.917,161.869z"/>
<path class="color2" d="M501.802,158.257c0,2.305-1.869,4.174-4.175,4.174c-2.305,0-4.174-1.869-4.174-4.174
	c0-2.305,1.869-4.174,4.174-4.174C499.933,154.083,501.802,155.952,501.802,158.257z"/>
<path class="color2" d="M437.433,191.58c0,2.305-1.869,4.174-4.175,4.174c-2.305,0-4.174-1.869-4.174-4.174
	c0-2.305,1.869-4.174,4.174-4.174C435.564,187.406,437.433,189.275,437.433,191.58z"/>
<path class="color2" d="M449.843,188.12c0,2.305-1.869,4.174-4.175,4.174c-2.305,0-4.174-1.869-4.174-4.174
	c0-2.305,1.869-4.174,4.174-4.174C447.974,183.945,449.843,185.814,449.843,188.12z"/>
<path class="color2" d="M462.085,184.284c0,2.305-1.869,4.174-4.175,4.174c-2.305,0-4.174-1.869-4.174-4.174
	c0-2.305,1.869-4.174,4.174-4.174C460.215,180.109,462.085,181.979,462.085,184.284z"/>
<path class="color2" d="M472.634,180.109c0,2.305-1.869,4.174-4.175,4.174c-2.305,0-4.174-1.869-4.174-4.174
	c0-2.305,1.869-4.174,4.174-4.174C470.765,175.935,472.634,177.804,472.634,180.109z"/>
<path class="color2" d="M484.895,175.935c0,2.305-1.869,4.174-4.175,4.174c-2.305,0-4.174-1.869-4.174-4.174
	c0-2.305,1.869-4.174,4.174-4.174C483.026,171.761,484.895,173.63,484.895,175.935z"/>
<path class="color2" d="M496.78,172.324c0,2.305-1.869,4.174-4.175,4.174c-2.305,0-4.174-1.869-4.174-4.174
	c0-2.305,1.869-4.174,4.174-4.174C494.911,168.149,496.78,170.019,496.78,172.324z"/>
<path class="color2" d="M432.412,206.21c0,2.305-1.869,4.174-4.175,4.174c-2.305,0-4.174-1.869-4.174-4.174
	c0-2.305,1.869-4.174,4.174-4.174C430.542,202.036,432.412,203.905,432.412,206.21z"/>
<path class="color2" d="M444.822,202.749c0,2.305-1.869,4.174-4.175,4.174c-2.305,0-4.174-1.869-4.174-4.174
	c0-2.305,1.869-4.174,4.174-4.174C442.953,198.575,444.822,200.444,444.822,202.749z"/>
<path class="color2" d="M457.063,198.914c0,2.305-1.869,4.174-4.175,4.174c-2.305,0-4.174-1.869-4.174-4.174
	c0-2.305,1.869-4.174,4.174-4.174C455.194,194.739,457.063,196.608,457.063,198.914z"/>
<path class="color2" d="M467.613,194.739c0,2.305-1.869,4.174-4.175,4.174c-2.305,0-4.174-1.869-4.174-4.174
	c0-2.305,1.869-4.174,4.174-4.174C465.744,190.565,467.613,192.434,467.613,194.739z"/>
<path class="color2" d="M479.874,190.565c0,2.305-1.869,4.174-4.175,4.174c-2.305,0-4.174-1.869-4.174-4.174
	c0-2.305,1.869-4.174,4.174-4.174C478.004,186.391,479.874,188.26,479.874,190.565z"/>
<path class="color2" d="M491.758,186.954c0,2.305-1.869,4.174-4.175,4.174c-2.305,0-4.174-1.869-4.174-4.174
	c0-2.305,1.869-4.174,4.174-4.174C489.889,182.779,491.758,184.648,491.758,186.954z"/>
<path class="color2" d="M427.39,220.11c0,2.305-1.869,4.174-4.175,4.174c-2.305,0-4.174-1.869-4.174-4.174s1.869-4.174,4.174-4.174
	C425.521,215.936,427.39,217.805,427.39,220.11z"/>
<path class="color2" d="M439.8,216.649c0,2.305-1.869,4.174-4.175,4.174c-2.305,0-4.174-1.869-4.174-4.174
	c0-2.305,1.869-4.174,4.174-4.174C437.931,212.475,439.8,214.344,439.8,216.649z"/>
<path class="color2" d="M452.041,212.813c0,2.305-1.869,4.174-4.175,4.174c-2.305,0-4.174-1.869-4.174-4.174
	s1.869-4.174,4.174-4.174C450.172,208.639,452.041,210.508,452.041,212.813z"/>
<path class="color2" d="M462.591,208.639c0,2.305-1.869,4.174-4.175,4.174c-2.305,0-4.174-1.869-4.174-4.174
	c0-2.305,1.869-4.174,4.174-4.174C460.722,204.465,462.591,206.334,462.591,208.639z"/>
<path class="color2" d="M474.852,204.465c0,2.305-1.869,4.174-4.175,4.174c-2.305,0-4.174-1.869-4.174-4.174
	c0-2.305,1.869-4.174,4.174-4.174C472.983,200.29,474.852,202.16,474.852,204.465z"/>
<path class="color2" d="M486.737,200.854c0,2.305-1.869,4.174-4.175,4.174c-2.305,0-4.174-1.869-4.174-4.174
	c0-2.305,1.869-4.174,4.174-4.174C484.868,196.679,486.737,198.548,486.737,200.854z"/>
<path class="color2" d="M423.215,234.39c0,2.305-1.869,4.174-4.175,4.174c-2.305,0-4.174-1.869-4.174-4.174
	c0-2.305,1.869-4.174,4.174-4.174C421.346,230.216,423.215,232.085,423.215,234.39z"/>
<path class="color2" d="M435.625,230.929c0,2.306-1.869,4.175-4.175,4.175c-2.305,0-4.174-1.869-4.174-4.175
	c0-2.305,1.869-4.174,4.174-4.174C433.756,226.755,435.625,228.624,435.625,230.929z"/>
<path class="color2" d="M447.867,227.093c0,2.305-1.869,4.174-4.175,4.174c-2.305,0-4.174-1.869-4.174-4.174
	c0-2.305,1.869-4.174,4.174-4.174C445.998,222.919,447.867,224.788,447.867,227.093z"/>
<path class="color2" d="M458.416,222.919c0,2.305-1.869,4.174-4.175,4.174c-2.305,0-4.174-1.869-4.174-4.174
	c0-2.305,1.869-4.174,4.174-4.174C456.547,218.745,458.416,220.614,458.416,222.919z"/>
<path class="color2" d="M470.677,218.745c0,2.305-1.869,4.174-4.175,4.174c-2.305,0-4.174-1.869-4.174-4.174
	c0-2.305,1.869-4.174,4.174-4.174C468.808,214.57,470.677,216.439,470.677,218.745z"/>
<path class="color2" d="M482.562,215.133c0,2.305-1.869,4.174-4.175,4.174c-2.305,0-4.174-1.869-4.174-4.174
	c0-2.305,1.869-4.174,4.174-4.174C480.693,210.959,482.562,212.828,482.562,215.133z"/>
<path class="color2" d="M418.194,248.785c0,2.305-1.869,4.174-4.175,4.174c-2.305,0-4.174-1.869-4.174-4.174
	c0-2.305,1.869-4.174,4.174-4.174C416.325,244.611,418.194,246.48,418.194,248.785z"/>
<path class="color2" d="M430.604,245.324c0,2.306-1.869,4.175-4.175,4.175c-2.305,0-4.174-1.869-4.174-4.175
	c0-2.305,1.869-4.174,4.174-4.174C428.735,241.15,430.604,243.02,430.604,245.324z"/>
<path class="color2" d="M442.845,241.488c0,2.306-1.869,4.175-4.175,4.175c-2.305,0-4.174-1.869-4.174-4.175
	c0-2.305,1.869-4.174,4.174-4.174C440.976,237.314,442.845,239.184,442.845,241.488z"/>
<path class="color2" d="M453.395,237.314c0,2.305-1.869,4.174-4.175,4.174c-2.305,0-4.174-1.869-4.174-4.174
	c0-2.305,1.869-4.174,4.174-4.174C451.526,233.141,453.395,235.01,453.395,237.314z"/>
<path class="color2" d="M465.656,233.141c0,2.305-1.869,4.174-4.175,4.174c-2.305,0-4.174-1.869-4.174-4.174
	c0-2.306,1.869-4.175,4.174-4.175C463.787,228.966,465.656,230.835,465.656,233.141z"/>
<path class="color2" d="M477.54,229.529c0,2.305-1.869,4.174-4.175,4.174c-2.305,0-4.174-1.869-4.174-4.174
	c0-2.306,1.869-4.175,4.174-4.175C475.671,225.354,477.54,227.224,477.54,229.529z"/>
<path class="color2" d="M413.474,261.995c0,2.305-1.869,4.174-4.175,4.174c-2.305,0-4.174-1.869-4.174-4.174
	c0-2.305,1.869-4.174,4.174-4.174C411.605,257.821,413.474,259.69,413.474,261.995z"/>
<path class="color2" d="M425.884,258.534c0,2.306-1.869,4.175-4.175,4.175c-2.305,0-4.174-1.869-4.174-4.175
	c0-2.305,1.869-4.174,4.174-4.174C424.015,254.36,425.884,256.229,425.884,258.534z"/>
<path class="color2" d="M438.125,254.698c0,2.306-1.869,4.175-4.175,4.175c-2.305,0-4.174-1.869-4.174-4.175
	c0-2.305,1.869-4.174,4.174-4.174C436.256,250.524,438.125,252.394,438.125,254.698z"/>
<path class="color2" d="M448.675,250.524c0,2.305-1.869,4.174-4.175,4.174c-2.305,0-4.174-1.869-4.174-4.174
	c0-2.305,1.869-4.174,4.174-4.174C446.806,246.351,448.675,248.22,448.675,250.524z"/>
<path class="color2" d="M460.936,246.351c0,2.305-1.869,4.174-4.175,4.174c-2.305,0-4.174-1.869-4.174-4.174
	c0-2.306,1.869-4.175,4.174-4.175C459.067,242.176,460.936,244.045,460.936,246.351z"/>
<path class="color2" d="M472.821,242.739c0,2.305-1.869,4.174-4.175,4.174c-2.305,0-4.174-1.869-4.174-4.174
	c0-2.306,1.869-4.175,4.174-4.175C470.952,238.564,472.821,240.434,472.821,242.739z"/>
<path class="color2" d="M409.3,276.547c0,2.305-1.869,4.174-4.175,4.174c-2.305,0-4.174-1.869-4.174-4.174
	c0-2.305,1.869-4.174,4.174-4.174C407.431,272.373,409.3,274.242,409.3,276.547z"/>
<path class="color2" d="M421.71,273.086c0,2.306-1.869,4.175-4.175,4.175c-2.305,0-4.174-1.869-4.174-4.175
	c0-2.305,1.869-4.174,4.174-4.174C419.841,268.912,421.71,270.781,421.71,273.086z"/>
<path class="color2" d="M433.952,269.25c0,2.306-1.869,4.175-4.175,4.175c-2.305,0-4.174-1.869-4.174-4.175
	c0-2.305,1.869-4.174,4.174-4.174C432.082,265.076,433.952,266.945,433.952,269.25z"/>
<path class="color2" d="M444.501,265.076c0,2.305-1.869,4.174-4.175,4.174c-2.305,0-4.174-1.869-4.174-4.174
	c0-2.305,1.869-4.174,4.174-4.174C442.632,260.902,444.501,262.771,444.501,265.076z"/>
<path class="color2" d="M456.762,260.902c0,2.305-1.869,4.174-4.175,4.174c-2.305,0-4.174-1.869-4.174-4.174
	c0-2.306,1.869-4.175,4.174-4.175C454.893,256.728,456.762,258.597,456.762,260.902z"/>
<path class="color2" d="M468.647,257.291c0,2.305-1.869,4.174-4.175,4.174c-2.305,0-4.174-1.869-4.174-4.174
	c0-2.306,1.869-4.175,4.174-4.175C466.778,253.116,468.647,254.985,468.647,257.291z"/>
<path class="color2" d="M404.478,290.912c0,2.305-1.869,4.174-4.175,4.174c-2.305,0-4.174-1.869-4.174-4.174
	c0-2.305,1.869-4.174,4.174-4.174C402.609,286.738,404.478,288.607,404.478,290.912z"/>
<path class="color2" d="M416.888,287.451c0,2.306-1.869,4.175-4.175,4.175c-2.305,0-4.174-1.869-4.174-4.175
	c0-2.305,1.869-4.174,4.174-4.174C415.019,283.277,416.888,285.146,416.888,287.451z"/>
<path class="color2" d="M429.129,283.615c0,2.306-1.869,4.175-4.175,4.175c-2.305,0-4.174-1.869-4.174-4.175
	c0-2.305,1.869-4.174,4.174-4.174C427.26,279.441,429.129,281.311,429.129,283.615z"/>
<path class="color2" d="M439.679,279.441c0,2.305-1.869,4.174-4.175,4.174c-2.305,0-4.174-1.869-4.174-4.174
	c0-2.305,1.869-4.174,4.174-4.174C437.81,275.268,439.679,277.137,439.679,279.441z"/>
<path class="color2" d="M451.94,275.268c0,2.305-1.869,4.174-4.175,4.174c-2.305,0-4.174-1.869-4.174-4.174
	c0-2.306,1.869-4.175,4.174-4.175C450.071,271.093,451.94,272.962,451.94,275.268z"/>
<path class="color2" d="M463.825,271.656c0,2.305-1.869,4.174-4.175,4.174c-2.305,0-4.174-1.869-4.174-4.174
	c0-2.306,1.869-4.175,4.174-4.175C461.956,267.482,463.825,269.351,463.825,271.656z"/>
<path class="color2" d="M400.104,304.715c0,2.305-1.869,4.174-4.175,4.174c-2.305,0-4.174-1.869-4.174-4.174
	c0-2.305,1.869-4.174,4.174-4.174C398.235,300.541,400.104,302.41,400.104,304.715z"/>
<path class="color2" d="M412.514,301.254c0,2.306-1.869,4.175-4.175,4.175c-2.305,0-4.174-1.869-4.174-4.175
	c0-2.305,1.869-4.174,4.174-4.174C410.645,297.08,412.514,298.949,412.514,301.254z"/>
<path class="color2" d="M424.755,297.418c0,2.306-1.869,4.175-4.175,4.175c-2.305,0-4.174-1.869-4.174-4.175
	c0-2.305,1.869-4.174,4.174-4.174C422.886,293.244,424.755,295.113,424.755,297.418z"/>
<path class="color2" d="M435.305,293.244c0,2.305-1.869,4.174-4.175,4.174c-2.305,0-4.174-1.869-4.174-4.174
	c0-2.305,1.869-4.174,4.174-4.174C433.436,289.07,435.305,290.939,435.305,293.244z"/>
<path class="color2" d="M447.566,289.07c0,2.305-1.869,4.174-4.175,4.174c-2.305,0-4.174-1.869-4.174-4.174
	c0-2.306,1.869-4.175,4.174-4.175C445.697,284.896,447.566,286.765,447.566,289.07z"/>
<path class="color2" d="M459.451,285.459c0,2.305-1.869,4.174-4.175,4.174c-2.305,0-4.174-1.869-4.174-4.174
	c0-2.306,1.869-4.175,4.174-4.175C457.582,281.284,459.451,283.153,459.451,285.459z"/>
<path class="color2" d="M395.282,318.518c0,2.305-1.869,4.174-4.175,4.174c-2.305,0-4.174-1.869-4.174-4.174
	c0-2.305,1.869-4.174,4.174-4.174C393.413,314.344,395.282,316.213,395.282,318.518z"/>
<path class="color2" d="M407.692,315.057c0,2.306-1.869,4.175-4.175,4.175c-2.305,0-4.174-1.869-4.174-4.175
	c0-2.305,1.869-4.174,4.174-4.174C405.823,310.883,407.692,312.752,407.692,315.057z"/>
<path class="color2" d="M419.933,311.221c0,2.306-1.869,4.175-4.175,4.175c-2.305,0-4.174-1.869-4.174-4.175
	c0-2.305,1.869-4.174,4.174-4.174C418.064,307.047,419.933,308.916,419.933,311.221z"/>
<path class="color2" d="M430.483,307.047c0,2.305-1.869,4.174-4.175,4.174c-2.305,0-4.174-1.869-4.174-4.174
	c0-2.305,1.869-4.174,4.174-4.174C428.614,302.873,430.483,304.742,430.483,307.047z"/>
<path class="color2" d="M442.744,302.873c0,2.305-1.869,4.174-4.175,4.174c-2.305,0-4.174-1.869-4.174-4.174
	c0-2.306,1.869-4.175,4.174-4.175C440.874,298.698,442.744,300.567,442.744,302.873z"/>
<path class="color2" d="M454.628,299.262c0,2.305-1.869,4.174-4.175,4.174c-2.305,0-4.174-1.869-4.174-4.174
	c0-2.306,1.869-4.175,4.174-4.175C452.759,295.087,454.628,296.956,454.628,299.262z"/>
<path class="color2" d="M390.908,332.805c0,2.305-1.869,4.174-4.175,4.174c-2.305,0-4.174-1.869-4.174-4.174
	c0-2.305,1.869-4.174,4.174-4.174C389.039,328.631,390.908,330.5,390.908,332.805z"/>
<path class="color2" d="M403.318,329.344c0,2.306-1.869,4.175-4.175,4.175c-2.305,0-4.174-1.869-4.174-4.175
	c0-2.305,1.869-4.174,4.174-4.174C401.449,325.17,403.318,327.039,403.318,329.344z"/>
<path class="color2" d="M415.559,325.508c0,2.306-1.869,4.175-4.175,4.175c-2.305,0-4.174-1.869-4.174-4.175
	c0-2.305,1.869-4.174,4.174-4.174C413.69,321.334,415.559,323.203,415.559,325.508z"/>
<path class="color2" d="M426.109,321.334c0,2.305-1.869,4.174-4.175,4.174c-2.305,0-4.174-1.869-4.174-4.174
	s1.869-4.174,4.174-4.174C424.24,317.16,426.109,319.029,426.109,321.334z"/>
<path class="color2" d="M438.37,317.16c0,2.305-1.869,4.174-4.175,4.174c-2.305,0-4.174-1.869-4.174-4.174
	c0-2.306,1.869-4.175,4.174-4.175C436.5,312.985,438.37,314.854,438.37,317.16z"/>
<path class="color2" d="M450.254,313.549c0,2.305-1.869,4.174-4.175,4.174c-2.305,0-4.174-1.869-4.174-4.174
	c0-2.306,1.869-4.175,4.174-4.175C448.385,309.374,450.254,311.243,450.254,313.549z"/>
<path class="color2" d="M386.085,346.607c0,2.305-1.869,4.174-4.175,4.174c-2.305,0-4.174-1.869-4.174-4.174
	c0-2.305,1.869-4.174,4.174-4.174C384.216,342.434,386.085,344.303,386.085,346.607z"/>
<path class="color2" d="M398.496,343.146c0,2.306-1.869,4.175-4.175,4.175c-2.305,0-4.174-1.869-4.174-4.175
	c0-2.305,1.869-4.174,4.174-4.174C396.626,338.973,398.496,340.842,398.496,343.146z"/>
<path class="color2" d="M410.737,339.311c0,2.306-1.869,4.175-4.175,4.175c-2.305,0-4.174-1.869-4.174-4.175
	c0-2.305,1.869-4.174,4.174-4.174C408.868,335.137,410.737,337.006,410.737,339.311z"/>
<path class="color2" d="M421.287,335.137c0,2.305-1.869,4.174-4.175,4.174c-2.305,0-4.174-1.869-4.174-4.174
	c0-2.305,1.869-4.174,4.174-4.174C419.417,330.963,421.287,332.832,421.287,335.137z"/>
<path class="color2" d="M433.547,330.963c0,2.305-1.869,4.174-4.175,4.174c-2.305,0-4.174-1.869-4.174-4.174
	c0-2.306,1.869-4.175,4.174-4.175C431.678,326.788,433.547,328.657,433.547,330.963z"/>
<path class="color2" d="M445.432,327.352c0,2.305-1.869,4.174-4.175,4.174c-2.305,0-4.174-1.869-4.174-4.174
	c0-2.306,1.869-4.175,4.174-4.175C443.563,323.177,445.432,325.046,445.432,327.352z"/>
<polygon class="color2" points="426.574,386.761 365.935,368.129 366.249,367.162 461.448,74.866 524.238,96.207 523.593,98.101
	462.721,77.412 368.466,366.814 427.162,384.849 "/>
<rect x="211.618" y="26.709" transform="matrix(0.9763 -0.2164 0.2164 0.9763 -38.1597 50.7342)" class="color1" width="2" height="345.86"/>
<rect x="223.201" y="23.86" transform="matrix(0.985 -0.1728 0.1728 0.985 -30.7504 41.7123)" class="color1" width="2" height="347.223"/>
<rect x="234.909" y="21.9" transform="matrix(0.9909 -0.1343 0.1343 0.9909 -24.095 33.4643)" class="color1" width="2" height="346.732"/>
<rect x="246.367" y="20.751" transform="matrix(0.9959 -0.0909 0.0909 0.9959 -16.6954 23.2877)" class="color1" width="2" height="348.442"/>
<rect x="257.951" y="21.242" transform="matrix(0.9987 -0.0515 0.0515 0.9987 -9.6666 13.602)" class="color1" width="2" height="346.049"/>
<rect x="270.034" y="19.462" transform="matrix(0.9999 -0.0105 0.0105 0.9999 -2.0237 2.87)" class="color1" width="2" height="347.608"/>
<rect x="109.198" y="192.266" transform="matrix(0.0224 -0.9997 0.9997 0.0224 83.4628 471.8903)" class="color1" width="347.673" height="2"/>
<rect x="120.997" y="192.128" transform="matrix(0.0606 -0.9982 0.9982 0.0606 84.4643 476.0003)" class="color1" width="348.223" height="2"/>
<rect x="132.085" y="193.972" transform="matrix(0.0947 -0.9955 0.9955 0.0947 83.2482 481.4901)" class="color1" width="348.566" height="1.999"/>
<rect x="144.08" y="194.972" transform="matrix(0.1328 -0.9911 0.9911 0.1328 81.6375 485.248)" class="color1" width="348.075" height="2"/>
<rect x="156.978" y="196.472" transform="matrix(0.1602 -0.9871 0.9871 0.1602 82.3919 491.7818)" class="color1" width="346.447" height="2"/>
<rect x="166.41" y="198.355" transform="matrix(0.1944 -0.9809 0.9809 0.1944 79.1079 495.0371)" class="color1" width="349.085" height="2"/>
<rect x="179.485" y="200.688" transform="matrix(0.2227 -0.9749 0.9749 0.2227 77.5263 500.6105)" class="color1" width="346.431" height="1.999"/>
<rect x="188.396" y="202.928" transform="matrix(0.2499 -0.9683 0.9683 0.2499 74.611 504.1658)" class="color1" width="348.61" height="2.001"/>
<rect x="199.949" y="205.095" transform="matrix(0.2803 -0.9599 0.9599 0.2803 71.007 506.894)" class="color1" width="347.17" height="2"/>
<rect x="210.584" y="209.138" transform="matrix(0.3124 -0.9499 0.9499 0.3124 64.8617 509.8879)" class="color1" width="348.139" height="2.001"/>
</svg>
