<svg xmlns="http://www.w3.org/2000/svg" viewBox="0 0 29.121 23.421">
  <path fill="#777" d="M26.621 22.921h-24.121c-1.1 0-2-.899-2-2v-18.421c0-1.101.9-2 2-2h24.121c1.102 0 2 .899 2 2v18.421c0 1.1-.898 2-2 2"/>
  <path fill="#fff" d="M26.621 23.421h-24.121c-1.378 0-2.5-1.121-2.5-2.5v-18.421c0-1.378 1.122-2.5 2.5-2.5h24.121c1.379 0 2.5 1.122 2.5 2.5v18.421c0 1.379-1.121 2.5-2.5 2.5zm-24.121-22.421c-.827 0-1.5.673-1.5 1.5v18.421c0 .827.673 1.5 1.5 1.5h24.121c.827 0 1.5-.673 1.5-1.5v-18.421c0-.827-.673-1.5-1.5-1.5h-24.121zM11.594 12.861v6.174l4.821-3.087-4.821-3.087zm4.822 0h1.175v6.174h-1.175v-6.174z"/>
</svg>