<svg xmlns="http://www.w3.org/2000/svg" viewBox="0 0 25.473 25.473">
  <path fill="#777" d="M24.972 12.736c0 6.758-5.479 12.235-12.235 12.235-6.76 0-12.236-5.479-12.236-12.235s5.476-12.236 12.235-12.236c6.757 0 12.236 5.479 12.236 12.236m0 0c0 6.758-5.479 12.235-12.235 12.235-6.76 0-12.236-5.479-12.236-12.235s5.476-12.236 12.235-12.236c6.757 0 12.236 5.479 12.236 12.236"/>
  <path fill="#fff" d="M12.736 25.472c-7.023 0-12.736-5.713-12.736-12.736 0-7.023 5.713-12.736 12.736-12.736 7.022 0 12.736 5.713 12.736 12.736 0 7.023-5.713 12.736-12.736 12.736zm0-24.472c-6.471 0-11.736 5.265-11.736 11.736 0 6.472 5.265 11.736 11.736 11.736 6.472 0 11.736-5.265 11.736-11.736 0-6.471-5.264-11.736-11.736-11.736zM12.736 25.472c-7.023 0-12.736-5.713-12.736-12.736 0-7.023 5.713-12.736 12.736-12.736 7.022 0 12.736 5.713 12.736 12.736 0 7.023-5.713 12.736-12.736 12.736zm0-24.472c-6.471 0-11.736 5.265-11.736 11.736 0 6.472 5.265 11.736 11.736 11.736 6.472 0 11.736-5.265 11.736-11.736 0-6.471-5.264-11.736-11.736-11.736zM9.78 7.322v10.829l8.458-5.415-8.458-5.414z"/>
</svg>