<svg xmlns="http://www.w3.org/2000/svg" viewBox="0 0 29.121 23.421">
  <path fill="#fff" d="M18.916 17.971l-.385-.447c1.789-1.537 2.816-3.771 2.816-6.128 0-2.266-.963-4.441-2.639-5.968l.337-.37c1.87 1.704 2.897 3.771 2.897 6.3.001 2.628-1.03 4.899-3.026 6.613m0 0l-.385-.447c1.789-1.537 2.816-3.771 2.816-6.128 0-2.266-.963-4.441-2.639-5.968l.337-.37c1.87 1.704 2.897 3.771 2.897 6.3.001 2.628-1.03 4.899-3.026 6.613m0 0l-.385-.447c1.789-1.537 2.816-3.771 2.816-6.128 0-2.266-.963-4.441-2.639-5.968l.337-.37c1.87 1.704 2.897 3.771 2.897 6.3.001 2.628-1.03 4.899-3.026 6.613m-12.353-10.117v7.259h4.234l5.446 4.236v-15.73l-5.446 4.235h-4.234zm12.353 10.117l-.385-.447c1.789-1.537 2.816-3.771 2.816-6.128 0-2.266-.963-4.441-2.639-5.968l.337-.37c1.87 1.704 2.897 3.771 2.897 6.3.001 2.628-1.03 4.899-3.026 6.613m0 0l-.385-.447c1.789-1.537 2.816-3.771 2.816-6.128 0-2.266-.963-4.441-2.639-5.968l.337-.37c1.87 1.704 2.897 3.771 2.897 6.3.001 2.628-1.03 4.899-3.026 6.613m-12.353-10.117v7.259h4.234l5.446 4.236v-15.73l-5.446 4.235h-4.234zm11.134 8.073l-.399-.465c1.179-1.012 1.854-2.483 1.854-4.037 0-1.493-.635-2.927-1.738-3.932l.414-.455c1.23 1.123 1.938 2.722 1.938 4.387.002 1.733-.754 3.373-2.069 4.502m0 0l-.399-.465c1.179-1.012 1.854-2.483 1.854-4.037 0-1.493-.635-2.927-1.738-3.932l.414-.455c1.23 1.123 1.938 2.722 1.938 4.387.002 1.733-.754 3.373-2.069 4.502"/>
</svg>