<svg xmlns="http://www.w3.org/2000/svg" viewBox="0 0 425.627 560"><path fill="currentColor" d="M27.69 199.164l30.828 305.424c1.709 12.905 64.035 55.355 154.28 55.412 90.301-.059 152.629-42.507 154.309-55.412l30.855-305.424c-47.152 26.376-117.626 38.836-185.163 38.836-67.48 0-137.984-12.46-185.109-38.836zm273.814-156.885l-24.053-26.628c-9.297-13.243-19.375-15.651-39.004-15.651h-51.269c-19.6 0-29.709 2.408-38.977 15.649l-24.051 26.63c-71.96 12.573-124.15 45.922-124.15 70.533v4.76c0 43.316 95.282 78.428 212.799 78.428 117.545 0 212.828-35.112 212.828-78.431v-4.76c0-24.609-52.164-57.957-124.123-70.53zm-30.745 79.241l-29.96-37.52h-56l-29.904 37.52h-47.6s52.137-62.188 59.106-70.616c5.32-6.438 10.753-8.901 17.81-8.901h57.205c7.084 0 12.516 2.464 17.836 8.901 6.943 8.431 59.104 70.616 59.104 70.616h-47.597z"/></svg>