<svg xmlns="http://www.w3.org/2000/svg" viewBox="0 7.398 5.032 7.204" xml:space="preserve">
  <path fill="currentColor" d="M1.523 8.922v3.489c0 .65.083 1.048.482 1.173.046-.207.046-.449.046-.652v-2.136l.258.01h.017c.27 0 1.152-.07 1.152-.975 0-.883-.864-.909-.962-.909h-.993zM.497 7.895v4.995c0 .788.127 1.217.804 1.217a.865.865 0 0 0 .433-.093c-.707-.313-.708-1.191-.708-1.602V8.426h1.49c.505 0 1.46.294 1.46 1.406 0 .981-.726 1.391-1.427 1.46v1.64c0 .207 0 .449-.042.684a.6.6 0 0 0 .354-.158c.219-.22.219-.654.219-1.003v-.042l.001-.705.191-.045c.051-.013 1.264-.328 1.264-1.843 0-1.674-1.205-1.924-1.924-1.924H.497zm.804 6.707C0 14.602 0 13.402 0 12.89V7.398h2.611c.568 0 2.42.175 2.42 2.421 0 .997-.444 1.576-.817 1.886a2.326 2.326 0 0 1-.639.377v.369c0 .418 0 .99-.364 1.355-.209.21-.507.316-.885.316h-.01c-.161.245-.459.48-1.015.48"/>
</svg>
