<svg xmlns="http://www.w3.org/2000/svg" viewBox="0 0 10 10"><path fill="currentColor" d="M9.2 9.025v-5.95l-.052-.123-.123-.052h-5.95l-.123.052-.052.123v5.95l.052.123.123.052h5.95l.123-.052.052-.123zm.7-5.95v5.95c0 .24-.086.447-.258.617-.169.172-.376.258-.617.258h-5.95c-.241 0-.447-.086-.618-.258-.171-.169-.257-.376-.257-.617v-5.95c0-.241.086-.447.257-.618s.377-.257.618-.257h5.95c.24 0 .447.086.617.257.172.171.258.377.258.618zm-2.1-2.1v.875h-.7v-.875l-.052-.123-.123-.052h-5.95l-.123.052-.052.123v5.95l.052.123.123.052h.875v.7h-.875c-.241 0-.447-.086-.618-.257s-.257-.377-.257-.618v-5.95c0-.241.086-.447.257-.618s.377-.257.618-.257h5.95c.241 0 .447.086.618.257s.257.377.257.618z"/></svg>