<svg xmlns="http://www.w3.org/2000/svg" viewBox="0 0 29.121 23.421">
  <path fill="#777" d="M26.621 22.919h-24.121c-1.1 0-2-.898-2-2v-18.419c0-1.101.9-2 2-2h24.121c1.102 0 2 .899 2 2v18.419c0 1.102-.898 2-2 2"/>
  <path fill="currentColor" d="M26.621 23.419h-24.121c-1.378 0-2.5-1.121-2.5-2.5v-18.419c0-1.378 1.122-2.5 2.5-2.5h24.121c1.379 0 2.5 1.122 2.5 2.5v18.419c0 1.379-1.121 2.5-2.5 2.5zm-24.121-22.419c-.827 0-1.5.673-1.5 1.5v18.419c0 .827.673 1.5 1.5 1.5h24.121c.827 0 1.5-.673 1.5-1.5v-18.419c0-.827-.673-1.5-1.5-1.5h-24.121zM19.047 12.973c-2.66 0-4.818 2.11-4.818 2.996 0 .608 2.158 2.866 4.818 2.866 2.661 0 4.816-2.111 4.816-2.866 0-.809-2.155-2.996-4.816-2.996m0 4.905c-1.12 0-2.027-.906-2.027-2.026s.907-2.028 2.027-2.028 2.027.908 2.027 2.028-.907 2.026-2.027 2.026"/>
  <path fill="currentColor" d="M4.186 4.21h5.475v4.961h-5.475v-4.961z"/>
  <path fill="currentColor" opacity="0.5" d="M12.124 4.21h5.476v4.961h-5.476v-4.961z"/>
  <path fill="currentColor" d="M4.186 11.493h5.475v4.961h-5.475v-4.961z"/>
</svg>