<?xml version="1.0" encoding="utf-8"?>
<!-- Generator: Adobe Illustrator 16.0.0, SVG Export Plug-In . SVG Version: 6.00 Build 0)  -->
<!DOCTYPE svg PUBLIC "-//W3C//DTD SVG 1.1//EN" "http://www.w3.org/Graphics/SVG/1.1/DTD/svg11.dtd">
<svg version="1.1" id="Layer_1" xmlns="http://www.w3.org/2000/svg" xmlns:xlink="http://www.w3.org/1999/xlink" x="0px" y="0px"
	 width="15.603px" height="17.056px" viewBox="0 0 15.603 17.056" enable-background="new 0 0 15.603 17.056" xml:space="preserve">
<path d="M14.097,7.041h-0.386c0.007-0.125,0.011-1.108,0.011-1.234C13.722,2.868,11.591,0,7.915,0C4.24,0,2.108,2.608,2.108,5.807
	c0,0.126,0.005,1.109,0.012,1.234H1.504C0.677,7.041,0,7.718,0,8.546v7.005c0,0.828,0.677,1.505,1.504,1.505h12.593
	c0.83,0,1.506-0.677,1.506-1.505V8.546C15.603,7.718,14.927,7.041,14.097,7.041 M8.545,12.001v3.489H6.904v-3.568
	c-0.536-0.282-0.789-0.843-0.789-1.491c0-0.932,0.755-1.686,1.686-1.686c0.93,0,1.686,0.754,1.686,1.686
	C9.487,11.146,9.175,11.757,8.545,12.001 M11.699,7.041H4.131c-0.01-0.124-0.017-1.107-0.017-1.234c0-1.85,1.232-3.801,3.801-3.801
	c2.569,0,3.801,1.951,3.801,3.801C11.716,5.934,11.71,6.917,11.699,7.041"/>
<g>
</g>
<g>
</g>
<g>
</g>
<g>
</g>
<g>
</g>
<g>
</g>
<g>
</g>
<g>
</g>
<g>
</g>
<g>
</g>
<g>
</g>
<g>
</g>
<g>
</g>
<g>
</g>
<g>
</g>
</svg>
