<?xml version="1.0" encoding="utf-8"?>
<!-- Generator: Adobe Illustrator 16.0.0, SVG Export Plug-In . SVG Version: 6.00 Build 0)  -->
<!DOCTYPE svg PUBLIC "-//W3C//DTD SVG 1.1//EN" "http://www.w3.org/Graphics/SVG/1.1/DTD/svg11.dtd">
<svg version="1.1" id="Layer_1" xmlns="http://www.w3.org/2000/svg" xmlns:xlink="http://www.w3.org/1999/xlink" x="0px" y="0px"
	 width="575.846px" height="481.846px" viewBox="0 0 575.846 481.846" enable-background="new 0 0 575.846 481.846"
	 xml:space="preserve">
<path display="none" d="M118.051,360.604v-63.933H0v-73.064h118.051v-63.932l95.896,100.464L118.051,360.604z"/>
<rect x="219.495" y="74.597" width="45.098" height="181.892"/>
<rect x="123.377" y="222.191" width="141.216" height="35.013"/>
<path d="M240.924,481.846c73.042,0,138.479-32.516,182.661-83.852l-33.432-33.43c-35.545,42.865-89.191,70.175-149.229,70.174
	c-107.043,0-193.818-86.772-193.818-193.815c0-107.042,86.775-193.817,193.818-193.817c60.038,0,113.681,27.314,149.229,70.18
	l33.419-33.42C379.392,32.528,313.967,0,240.924,0C107.865,0,0,107.865,0,240.923C0,373.981,107.865,481.846,240.924,481.846z"/>
<polygon points="444.881,371.892 575.846,240.923 444.881,109.959 444.881,180.48 444.881,197.233 327,197.233 327,284.617 
	444.881,284.617 444.881,301.37 "/>
</svg>
