<?xml version="1.0" encoding="utf-8"?>
<!-- Generator: Adobe Illustrator 16.0.0, SVG Export Plug-In . SVG Version: 6.00 Build 0)  -->
<!DOCTYPE svg PUBLIC "-//W3C//DTD SVG 1.1//EN" "http://www.w3.org/Graphics/SVG/1.1/DTD/svg11.dtd">
<svg version="1.1" id="Layer_1" xmlns="http://www.w3.org/2000/svg" xmlns:xlink="http://www.w3.org/1999/xlink" x="0px" y="0px"
	 width="575.846px" height="481.846px" viewBox="0 0 575.846 481.846" enable-background="new 0 0 575.846 481.846"
	 xml:space="preserve">
<path display="none" d="M118.051,360.604v-63.932H0v-73.064h118.051v-63.932l95.897,100.463L118.051,360.604z"/>
<rect x="311.253" y="77.357" width="45.098" height="181.893"/>
<rect x="311.253" y="224.643" width="141.216" height="35.012"/>
<path d="M334.922,0C261.88,0,196.44,32.515,152.261,83.851l33.43,33.429c35.546-42.864,89.193-70.174,149.231-70.173
	c107.043,0,193.818,86.773,193.818,193.816c0,107.042-86.775,193.816-193.818,193.816c-60.038,0-113.681-27.313-149.229-70.179
	l-33.419,33.42c44.18,51.336,109.604,83.864,182.647,83.864c133.06,0,240.924-107.865,240.924-240.923
	C575.846,107.863,467.98,0,334.922,0z"/>
<polygon points="117.882,371.886 248.847,240.919 117.882,109.955 117.882,180.476 117.882,197.229 0.001,197.229 0.001,284.612 
	117.882,284.612 117.882,301.365 "/>
</svg>
