<svg xmlns="http://www.w3.org/2000/svg" viewBox="0 0 29.121 23.421">
  <path fill="#777" d="M26.621 22.921h-24.121c-1.1 0-2-.899-2-2v-18.421c0-1.101.9-2 2-2h24.121c1.101 0 2 .899 2 2v18.421c0 1.1-.899 2-2 2"/>
  <path fill="#fff" d="M12.929 13.163h-.96v-.684h1.044l.217-1.777h-1.021v-.696h1.104l.275-2.196h.636l-.276 2.196h1.597l.288-2.196h.636l-.288 2.196h.972v.696h-1.044l-.216 1.777h1.021v.684h-1.104l-.3 2.447h-.636l.288-2.447h-1.584l-.301 2.447h-.647l.299-2.447zm2.316-.684l.216-1.777h-1.584l-.216 1.777h1.584z"/>
</svg>