<svg xmlns="http://www.w3.org/2000/svg" width="29.121" height="23.421" viewBox="0 0 29.121 23.421"><path fill="#808080" d="M26.621 22.921h-24.121c-1.1 0-2-.899-2-2v-18.421c0-1.101.9-2 2-2h24.121c1.101 0 2 .899 2 2v18.421c0 1.1-.899 2-2 2"/><path stroke="#fff" stroke-miterlimit="10" d="M26.621 22.921h-24.121c-1.1 0-2-.899-2-2v-18.421c0-1.101.9-2 2-2h24.121c1.101 0 2 .899 2 2v18.421c0 1.1-.899 2-2 2z" fill="none"/><path fill="#fff" d="M10.799 15.955c0 .869-.704 1.574-1.573 1.574-.87 0-1.574-.705-1.574-1.574s.704-1.574 1.574-1.574c.869 0 1.573.705 1.573 1.574m5.273 0c0 .869-.705 1.574-1.574 1.574-.869 0-1.574-.705-1.574-1.574s.705-1.574 1.574-1.574c.869 0 1.574.705 1.574 1.574m4.728 0c0 .453-.368.821-.821.821-.454 0-.821-.368-.821-.821s.367-.821.821-.821c.453 0 .821.368.821.821"/></svg>