<svg xmlns="http://www.w3.org/2000/svg" width="29.121" height="23.421" viewBox="0 0 29.121 23.421"><path fill="#808080" d="M26.621 22.921h-24.121c-1.1 0-2-.899-2-2v-18.421c0-1.101.9-2 2-2h24.121c1.102 0 2 .899 2 2v18.421c0 1.1-.898 2-2 2"/><path stroke="#fff" stroke-miterlimit="10" d="M26.621 22.921h-24.121c-1.1 0-2-.899-2-2v-18.421c0-1.101.9-2 2-2h24.121c1.102 0 2 .899 2 2v18.421c0 1.1-.898 2-2 2z" fill="none"/><path fill="#fff" d="M14.561 5.797c-5.366 0-9.718 4.26-9.718 6.045 0 1.229 4.352 5.781 9.718 5.781s9.718-4.262 9.718-5.781c-.001-1.633-4.352-6.045-9.718-6.045m0 9.897c-2.259 0-4.091-1.83-4.091-4.09s1.832-4.092 4.091-4.092 4.091 1.832 4.091 4.092-1.833 4.09-4.091 4.09"/><path fill="#fff" d="M22.498 3.066l.707.707-16.583 16.583-.707-.707z"/></svg>