<svg xmlns="http://www.w3.org/2000/svg" width="29.121" height="23.421" viewBox="0 0 29.121 23.421"><path fill="#808080" d="M26.621 22.921h-24.121c-1.1 0-2-.899-2-2v-18.421c0-1.101.9-2 2-2h24.121c1.101 0 2 .899 2 2v18.421c0 1.1-.899 2-2 2"/><path stroke="#fff" stroke-miterlimit="10" d="M26.621 22.921h-24.121c-1.1 0-2-.899-2-2v-18.421c0-1.101.9-2 2-2h24.121c1.101 0 2 .899 2 2v18.421c0 1.1-.899 2-2 2z" fill="none"/><path fill="#fff" d="M11.594 12.861v6.173l4.821-3.086zM16.416 12.861h1.175v6.173h-1.175z"/></svg>