<svg xmlns="http://www.w3.org/2000/svg" width="29.121" height="23.421" viewBox="0 0 29.121 23.421"><path fill="#7F7F7F" d="M26.621 22.875h-24.121c-1.1 0-2-.897-2-2v-18.42c0-1.101.9-2 2-2h24.121c1.1 0 2 .899 2 2v18.419c0 1.102-.9 2.001-2 2.001"/><path fill="#fff" d="M26.621 23.375h-24.121c-1.378 0-2.5-1.121-2.5-2.5v-18.42c0-1.378 1.122-2.5 2.5-2.5h24.121c1.379 0 2.5 1.122 2.5 2.5v18.419c0 1.379-1.121 2.501-2.5 2.501zm-24.121-22.42c-.827 0-1.5.673-1.5 1.5v18.419c0 .827.673 1.5 1.5 1.5h24.121c.827 0 1.5-.673 1.5-1.5v-18.419c0-.827-.673-1.5-1.5-1.5h-24.121zM14.608 19.792c-4.464 0-8.097-3.633-8.097-8.098 0-4.464 3.632-8.097 8.097-8.097s8.097 3.632 8.097 8.097c0 4.466-3.633 8.098-8.097 8.098zm0-15.694c-4.189 0-7.597 3.408-7.597 7.597s3.408 7.598 7.597 7.598 7.597-3.408 7.597-7.598c0-4.189-3.408-7.597-7.597-7.597zM11.581 13.869c0-1.16.846-1.953 1.687-2.402v-.055c-.665-.463-1.247-1.123-1.247-2.066 0-1.373 1.091-2.291 2.527-2.291 1.563 0 2.525.988 2.525 2.377 0 .936-.681 1.74-1.231 2.154v.057c.799.471 1.555 1.103 1.555 2.295 0 1.34-1.152 2.388-2.878 2.388-1.694-.002-2.938-1.035-2.938-2.457zm4.71.037c0-1.158-1.129-1.568-2.419-2.088-.718.467-1.25 1.129-1.25 1.949 0 .982.82 1.701 1.915 1.701 1.046 0 1.754-.642 1.754-1.562zm-.213-4.412c0-.883-.566-1.584-1.551-1.584-.833 0-1.45.572-1.45 1.436 0 1.066.99 1.516 2.06 1.941.607-.541.941-1.137.941-1.793z"/><path fill="#7F7F7F" d="M14.607 11.664h13.778"/><path fill="#fff" d="M14.607 11.414h13.778v.5h-13.778z"/><path fill="#7F7F7F" d="M14.607 11.664v-11.209"/><path fill="#fff" d="M14.357.455h.5v11.209h-.5z"/><path fill="#7F7F7F" d="M14.607 11.664h-13.524"/><path fill="#fff" d="M1.083 11.414h13.524v.5h-13.524z"/><path fill="#7F7F7F" d="M14.607 11.664v11.21"/><path fill="#fff" d="M14.357 11.664h.5v11.21h-.5z"/><path fill="#7F7F7F" d="M26.529 22.966l-11.922-11.302"/><path fill="#fff" d="M14.778 11.482l11.922 11.302-.344.363-11.922-11.302z"/></svg>