<svg xmlns="http://www.w3.org/2000/svg" xml:space="preserve" viewBox="0 0 22 22">
  <path d="M12.069 13.455c.308.307.338.781.063 1.055l-4.555 4.553c-.271.271-.747.244-1.053-.064l-3.526-3.523c-.306-.309-.334-.781-.063-1.055L7.49 9.867c.272-.272.747-.243 1.053.063.307.306.337.781.064 1.053l-3.564 3.565c-.272.271-.245.746.063 1.053l1.29 1.291c.308.307.782.334 1.055.064l3.563-3.564c.274-.273.748-.246 1.055.063M19 6.526c.307.306.336.78.063 1.053l-4.554 4.554c-.27.271-.747.244-1.054-.063-.307-.308-.336-.782-.065-1.055l3.565-3.563c.273-.272.243-.747-.063-1.053l-1.29-1.291c-.307-.308-.78-.337-1.053-.064l-3.566 3.563c-.271.273-.746.244-1.053-.063-.307-.306-.335-.781-.064-1.052l4.555-4.555c.271-.272.747-.243 1.053.063L19 6.526z"/>
  <path d="M14.217 7.783c.31.308.338.78.063 1.053l-5.446 5.445c-.27.271-.745.242-1.053-.064-.306-.305-.335-.781-.063-1.053l5.446-5.444c.272-.274.747-.245 1.053.063M19.035 19.465 17.48 21.02a.824.824 0 1 1-1.207-1.125l.041-.041 1.555-1.557-1.557-1.555a.824.824 0 0 1 1.166-1.166l1.556 1.555 1.557-1.557a.825.825 0 1 1 1.166 1.168l-1.555 1.555 1.555 1.557a.824.824 0 1 1-1.166 1.166l-1.556-1.555z"/>
</svg>
