<svg xmlns="http://www.w3.org/2000/svg" width="636.576" height="231.541" viewBox="0 0 636.576 231.541"><path d="M48.949 48.989v112.133c0 20.904 2.646 33.676 15.533 37.703 1.499-6.664 1.49-14.43 1.488-20.972l-.004-1.358.029-16.318-.029-50.975 8.298.334.54.005c8.688 0 37.044-2.259 37.044-31.326 0-28.401-27.761-29.226-30.927-29.226h-31.972zm-32.979-33.029v160.535c0 25.348 4.107 39.081 25.819 39.081 6.398 0 10.809-1.206 13.928-3-22.728-10.003-22.733-38.295-22.733-51.454v-128.089h47.886c16.273 0 46.934 9.445 46.934 45.182 0 31.549-23.328 44.696-45.871 46.935l.026 35.031-.033 16.328.002 1.326c.005 6.673.014 14.422-1.361 21.984 4.912-.701 8.652-2.387 11.364-5.099 7.049-7.056 7.031-21.023 7.023-32.239l-.009-1.359.051-22.627 6.137-1.45c1.625-.392 40.633-10.512 40.633-59.231 0-53.815-38.745-61.854-61.838-61.854h-67.958zm25.819 215.581c-41.789 0-41.789-38.576-41.789-55.046v-176.495h83.928c18.247 0 77.799 5.613 77.799 77.814 0 32.019-14.283 50.645-26.265 60.632-7.667 6.396-15.381 10.118-20.534 12.13l-.018 10.563.004 1.323c.014 13.417.031 31.804-11.696 43.531-6.737 6.751-16.31 10.176-28.45 10.176h-.341c-5.154 7.836-14.767 15.372-32.638 15.372"/><path d="M221.047 149.487c0 2.141-.528 4.115-1.582 5.923-1.055 1.809-2.507 3.247-4.356 4.317-.297.185-.602.359-.916.525-.315.166-.62.342-.916.526-1.998 1.106-4.125 1.66-6.381 1.66h-6.771v15.276h-3.985v-38.468l-1.107-1.826h13.782c1.661 0 3.238.313 4.732.94 1.495.628 2.795 1.486 3.902 2.574 1.107 1.089 1.983 2.361 2.629 3.818.645 1.462.969 3.039.969 4.735zm-4.096.997c0-1.365-.269-2.657-.805-3.875s-1.269-2.287-2.194-3.21c-.925-.922-2.008-1.642-3.249-2.159-1.24-.516-2.545-.774-3.915-.774h-6.664v18.984h8.441c.74 0 1.471-.063 2.193-.193.722-.129 1.397-.396 2.027-.803 1.333-.849 2.36-2.001 3.083-3.459.721-1.457 1.083-2.961 1.083-4.511zM257.744 177.716v-19.372h-21.864v19.372h-3.985v-38.468l-1.107-1.826h5.092v17.878h21.863v-16.052l-1.052-1.826h5.147v40.294h-4.094zM274.846 177.716v-38.468l-1.107-1.826h5.092v40.294h-3.985zM311.487 177.716h-19.538v-38.468l-1.107-1.826h5.092v37.305h16.716l-1.163 2.989zM348.128 177.716v-19.372h-21.863v19.372h-3.985v-38.468l-1.107-1.826h5.092v17.878h21.863v-16.052l-1.052-1.826h5.147v40.294h-4.095zM395.451 177.716l-6.254-14.003h-18.21l-5.425 12.177.609 1.826h-4.926l17.158-38.468-.83-1.826h4.372l17.934 40.294h-4.428zm-15.331-34.538l-7.805 17.546h15.608l-7.803-17.546zM430.875 177.716l-13.755-16.604h-4.511v16.604h-3.985v-38.468l-1.106-1.826h13.782c1.586 0 3.08.286 4.482.858s2.63 1.375 3.682 2.408c1.051 1.035 1.882 2.244 2.49 3.629.608 1.384.913 2.87.913 4.458 0 2.104-.498 3.997-1.494 5.677s-2.38 3.055-4.151 4.126c-1.033.628-1.929 1.089-2.685 1.385-.757.296-1.763.442-3.017.442l14.446 17.311h-5.091zm-2.104-27.866c0-1.296-.25-2.517-.75-3.665-.5-1.147-1.185-2.147-2.055-2.998s-1.879-1.518-3.026-1.999c-1.149-.48-2.371-.722-3.666-.722h-6.665v17.767h8.498c.592 0 1.239-.073 1.943-.222s1.314-.37 1.833-.666c.592-.333 1.129-.786 1.61-1.36.481-.573.889-1.203 1.223-1.888.333-.686.592-1.397.777-2.138.185-.741.278-1.443.278-2.109zM480.08 177.716v-33.818l-15.166 20.036h-1.937l-15.11-19.926v33.708h-3.211v-38.191l-1.604-2.103h4.981l16.438 21.696 16.438-21.696h3.266v40.294h-4.095zM537.918 157.07c0 3.728-.886 7.141-2.656 10.24-1.771 3.1-4.263 5.59-7.473 7.472-.296.186-.6.359-.913.526-.314.166-.618.341-.913.525-1.661.923-3.34 1.614-5.037 2.075s-3.487.692-5.369.692c-2.878 0-5.571-.526-8.081-1.577-2.51-1.052-4.695-2.5-6.559-4.346-1.863-1.845-3.33-4.013-4.4-6.503-1.07-2.491-1.604-5.176-1.604-8.054 0-3.764.903-7.176 2.712-10.239 1.808-3.063 4.298-5.554 7.472-7.473.295-.184.59-.359.886-.525.295-.166.59-.341.886-.526 3.247-1.882 6.733-2.822 10.461-2.822 2.878 0 5.563.535 8.054 1.605 2.49 1.07 4.667 2.527 6.531 4.372 1.862 1.846 3.329 4.013 4.399 6.504 1.069 2.492 1.604 5.176 1.604 8.054zm-4.095 1.052c0-2.546-.471-4.944-1.411-7.195-.941-2.25-2.233-4.215-3.875-5.895-1.642-1.679-3.569-3.007-5.784-3.985-2.214-.978-4.612-1.467-7.195-1.467-1.476 0-2.896.148-4.262.443s-2.693.812-3.985 1.55c-1.328.812-2.51 1.79-3.542 2.933-1.033 1.145-1.9 2.39-2.602 3.736-.701 1.348-1.227 2.777-1.577 4.29-.352 1.513-.526 3.025-.526 4.538 0 2.546.471 4.945 1.412 7.195.94 2.252 2.231 4.217 3.874 5.896 1.642 1.679 3.57 3.008 5.784 3.984 2.214.979 4.612 1.467 7.195 1.467 1.439 0 2.851-.146 4.234-.442 1.384-.295 2.702-.812 3.957-1.55 1.329-.775 2.509-1.734 3.543-2.878 1.032-1.144 1.899-2.398 2.602-3.764.7-1.365 1.235-2.805 1.604-4.317.368-1.513.554-3.025.554-4.539zM577.548 177.716l-25.626-33.708v33.708h-3.211v-38.191l-1.604-2.103h5.092l25.516 33.541v-30.939c0-.369-.12-.821-.359-1.356-.24-.534-.471-.949-.691-1.245h4.262v40.294h-3.379zM594.208 177.716v-38.468l-1.106-1.826h5.092v40.294h-3.986zM633.177 177.716h-21.753v-38.468l-1.106-1.826h24.021l-1.162 3.044h-17.767v14.834h18.93l-1.162 3.044h-17.768v16.328h18.93l-1.163 3.044zM229.515 207.991c0 3.58-.867 6.846-2.602 9.797-1.735 2.953-4.133 5.333-7.195 7.141-.296.185-.6.359-.913.525-.314.166-.619.342-.914.525-1.55.85-3.164 1.505-4.843 1.966-1.68.461-3.404.691-5.175.691h-11.733v-38.468l-1.107-1.826h14.667c2.73 0 5.294.508 7.693 1.521 2.398 1.016 4.501 2.408 6.31 4.18 1.807 1.771 3.229 3.855 4.262 6.254 1.033 2.4 1.55 4.964 1.55 7.694zm-4.151 1.052c0-2.436-.462-4.732-1.387-6.891-.924-2.159-2.182-4.031-3.771-5.618-1.59-1.586-3.467-2.841-5.631-3.764-2.164-.922-4.465-1.384-6.906-1.384h-7.544v34.261h9.32c1.404 0 2.782-.138 4.132-.415 1.349-.276 2.634-.783 3.855-1.521 1.257-.775 2.385-1.697 3.383-2.768s1.83-2.242 2.496-3.515c.666-1.273 1.174-2.629 1.525-4.068s.528-2.878.528-4.317zM262.06 228.637h-21.752v-38.468l-1.107-1.826h24.021l-1.163 3.044h-17.767v14.834h18.93l-1.163 3.044h-17.767v16.328h18.93l-1.162 3.044zM321.229 200.408c0 2.141-.528 4.115-1.582 5.923-1.055 1.809-2.507 3.247-4.356 4.317-.297.185-.602.359-.916.525-.315.166-.62.342-.916.526-1.998 1.106-4.125 1.66-6.381 1.66h-6.771v15.276h-3.985v-38.468l-1.107-1.826h13.782c1.661 0 3.238.313 4.732.94 1.495.628 2.795 1.486 3.902 2.574 1.107 1.089 1.983 2.361 2.629 3.818.645 1.462.969 3.039.969 4.735zm-4.096.997c0-1.365-.269-2.657-.805-3.875s-1.269-2.287-2.194-3.21c-.925-.922-2.008-1.642-3.249-2.159-1.24-.516-2.545-.774-3.915-.774h-6.664v18.984h8.441c.74 0 1.471-.063 2.193-.193.722-.129 1.397-.396 2.027-.803 1.333-.849 2.36-2.001 3.083-3.459.721-1.457 1.083-2.961 1.083-4.511zM356.818 228.637l-6.254-14.003h-18.21l-5.424 12.177.609 1.826h-4.926l17.158-38.468-.83-1.826h4.373l17.934 40.294h-4.43zm-15.332-34.538l-7.804 17.546h15.608l-7.804-17.546zM392.186 228.637l-13.755-16.604h-4.511v16.604h-3.985v-38.468l-1.106-1.826h13.782c1.586 0 3.08.286 4.482.858s2.63 1.375 3.682 2.408c1.051 1.035 1.882 2.244 2.49 3.629.608 1.384.913 2.87.913 4.458 0 2.104-.498 3.997-1.494 5.677s-2.38 3.055-4.151 4.126c-1.033.628-1.929 1.089-2.685 1.385-.757.296-1.763.442-3.017.442l14.446 17.311h-5.091zm-2.103-27.866c0-1.296-.25-2.517-.75-3.665-.5-1.147-1.185-2.147-2.055-2.998s-1.879-1.518-3.026-1.999c-1.149-.48-2.371-.722-3.666-.722h-6.665v17.767h8.498c.592 0 1.239-.073 1.943-.222s1.314-.37 1.833-.666c.592-.333 1.129-.786 1.61-1.36.481-.573.889-1.203 1.223-1.888.333-.686.592-1.397.777-2.138.185-.741.278-1.443.278-2.109zM405.967 228.637v-38.468l-1.106-1.826h5.092v40.294h-3.986zM445.377 217.29c0 2.03-.48 3.894-1.439 5.591-.96 1.697-2.324 3.044-4.096 4.04l-1.826 1.052c-1.809 1.032-3.801 1.55-5.978 1.55-1.957 0-3.866-.305-5.729-.913-1.863-.609-3.569-1.541-5.119-2.796l1.424-3.708c1.588 1.402 3.295 2.491 5.123 3.266 1.829.775 3.813 1.162 5.956 1.162.591 0 1.246-.073 1.966-.221s1.339-.369 1.856-.665c1.182-.7 2.095-1.733 2.741-3.1.646-1.364.97-2.712.97-4.04 0-1.586-.286-2.896-.858-3.93-.572-1.032-1.31-1.891-2.214-2.574-.904-.682-1.946-1.226-3.127-1.633-1.182-.405-2.39-.802-3.625-1.189-1.237-.388-2.445-.812-3.626-1.273-1.181-.461-2.223-1.06-3.127-1.799-.904-.737-1.643-1.679-2.214-2.822-.572-1.144-.858-2.583-.858-4.317 0-1.882.443-3.626 1.329-5.23.886-1.605 2.158-2.869 3.818-3.792l1.883-1.052c1.696-.959 3.505-1.438 5.424-1.438 1.845 0 3.625.296 5.341.886 1.716.591 3.274 1.458 4.678 2.602l-1.384 3.652c-1.407-1.291-3-2.306-4.776-3.044-1.776-.737-3.609-1.107-5.496-1.107-.52 0-1.111.065-1.777.194-.667.13-1.223.342-1.666.637-1.037.628-1.861 1.568-2.472 2.822-.61 1.255-.916 2.473-.916 3.653 0 1.514.286 2.759.86 3.736s1.322 1.79 2.248 2.435c.926.646 1.979 1.172 3.164 1.578 1.184.406 2.396.803 3.636 1.189 1.239.388 2.45.822 3.635 1.301 1.184.48 2.238 1.107 3.163 1.882.926.775 1.675 1.753 2.249 2.934.572 1.179.859 2.673.859 4.481zM234.523 120.444v-35.277l-14.893 20.315h-4.393l-14.894-20.247v35.208h-7.343v-45.571l-3.088-4.393h11.324l17.364 23.678 17.364-23.678h7.824v49.965h-9.265zM287.576 120.444h-28.62v-46.19l-2.196-3.775h33.424l-2.608 6.726h-19.354v14.07h21.962l-2.608 6.726h-19.354v15.717h21.962l-2.608 6.726zM334.59 77.343h-11.255v43.102h-9.266v-43.102h-13.864l2.608-6.863h34.385l-2.608 6.863zM377.348 120.444l-6.107-13.727h-20.865l-4.392 9.952 1.441 3.775h-10.913l20.453-46.19-1.648-3.775h10.021l22.1 49.965h-10.09zm-16.471-37.336l-7.482 16.884h14.963l-7.481-16.884zM427.931 105.002c0 2.563-.63 4.907-1.888 7.035-1.259 2.128-2.985 3.809-5.182 5.045l-4.118 2.333c-2.426 1.372-5.056 2.059-7.893 2.059-2.517 0-4.999-.343-7.446-1.029-2.448-.687-4.701-1.785-6.761-3.294l3.157-8.099c2.241 1.628 4.53 2.984 6.863 4.07 2.334 1.085 4.941 1.626 7.824 1.626 1.052 0 2.081-.182 3.089-.548 1.875-1.736 2.813-3.86 2.813-6.373 0-2.284-.572-4.054-1.716-5.311-1.145-1.257-2.563-2.25-4.255-2.981-1.693-.731-3.547-1.359-5.56-1.885-2.014-.525-3.867-1.245-5.56-2.159-1.693-.914-3.111-2.147-4.255-3.7-1.145-1.553-1.716-3.746-1.716-6.579 0-2.421.571-4.649 1.716-6.682 1.144-2.033 2.768-3.643 4.873-4.831.687-.411 1.383-.811 2.093-1.199.709-.388 1.407-.788 2.094-1.2 2.196-1.233 4.599-1.85 7.206-1.85 2.334 0 4.633.355 6.898 1.063 2.265.71 4.357 1.728 6.279 3.054l-3.088 8.03c-1.922-1.464-4.073-2.733-6.452-3.809-2.38-1.075-4.804-1.613-7.274-1.613-.779 0-1.603.161-2.472.48-.778.733-1.384 1.603-1.818 2.608-.436 1.007-.652 2.036-.652 3.088 0 2.196.572 3.867 1.716 5.01 1.144 1.144 2.574 2.071 4.29 2.78 1.716.71 3.579 1.338 5.594 1.887 2.013.549 3.878 1.304 5.594 2.265 1.716.961 3.145 2.265 4.289 3.912 1.146 1.649 1.718 3.914 1.718 6.797zM476.832 118.454c-1.35.732-2.676 1.315-3.98 1.75-1.304.435-2.711.755-4.221.961s-3.363.309-5.56.309c-3.432 0-6.691-.629-9.78-1.888-3.088-1.257-5.776-3.008-8.064-5.25-2.288-2.241-4.106-4.861-5.456-7.858-1.35-2.996-2.024-6.256-2.024-9.78 0-4.483 1.098-8.602 3.294-12.354 2.196-3.751 5.239-6.771 9.129-9.06.686-.412 1.372-.812 2.059-1.201.687-.388 1.373-.789 2.059-1.201 1.967-1.144 4.038-2.001 6.212-2.574 2.173-.572 4.403-.858 6.691-.858 2.379 0 4.667.229 6.863.686 2.196.458 4.393 1.19 6.589 2.196l-3.157 8.236c-2.288-1.463-4.507-2.562-6.657-3.294-2.151-.731-4.599-1.098-7.344-1.098-1.419 0-2.814.103-4.187.309-1.373.206-2.654.698-3.844 1.476-1.372.824-2.573 1.853-3.604 3.088-1.029 1.235-1.887 2.574-2.573 4.015s-1.201 2.94-1.544 4.496c-.344 1.556-.515 3.112-.515 4.667 0 2.837.525 5.491 1.578 7.961 1.052 2.471 2.493 4.645 4.324 6.52 1.829 1.877 3.98 3.353 6.451 4.427 2.471 1.076 5.124 1.613 7.961 1.613 2.563 0 4.85-.309 6.864-.926 2.013-.618 4.117-1.544 6.313-2.78l.893 4.667c-1.831 1.098-3.421 2.014-4.77 2.745zM545.5 94.227c0 4.576-1.076 8.728-3.226 12.457-2.151 3.729-5.172 6.76-9.06 9.094l-2.06 1.235s-1.372.801-2.059 1.167c-2.014 1.144-4.084 1.979-6.212 2.505-2.127.525-4.335.789-6.623.789-3.478 0-6.749-.629-9.814-1.888-3.065-1.257-5.73-3.008-7.995-5.25-2.266-2.241-4.05-4.861-5.354-7.858-1.304-2.996-1.956-6.256-1.956-9.78 0-4.53 1.074-8.658 3.226-12.388 2.15-3.729 5.17-6.76 9.06-9.094l2.059-1.235c.687-.412 1.373-.8 2.06-1.167 3.935-2.241 8.212-3.363 12.834-3.363 3.477 0 6.749.629 9.814 1.887 3.065 1.259 5.731 2.998 7.996 5.216 2.265 2.22 4.049 4.838 5.354 7.858 1.303 3.02 1.956 6.292 1.956 9.815zm-9.472 2.47c0-2.791-.492-5.433-1.476-7.927-.984-2.493-2.357-4.667-4.118-6.52-1.762-1.853-3.843-3.329-6.245-4.427s-5.045-1.647-7.928-1.647c-1.327 0-2.631.092-3.912.274-1.281.183-2.517.641-3.706 1.373-1.372.824-2.563 1.853-3.568 3.088-1.007 1.235-1.843 2.585-2.505 4.049-.664 1.465-1.156 2.986-1.476 4.564-.321 1.578-.48 3.146-.48 4.701 0 2.792.49 5.434 1.476 7.927.983 2.494 2.355 4.667 4.117 6.52s3.844 3.329 6.246 4.427 5.044 1.647 7.927 1.647c1.327 0 2.631-.079 3.912-.24 1.28-.16 2.516-.606 3.706-1.338 1.373-.824 2.563-1.864 3.569-3.123 1.006-1.258 1.841-2.619 2.505-4.083.663-1.464 1.155-2.986 1.476-4.564.319-1.578.48-3.145.48-4.701zM584.758 120.444l-14.551-19.423h-3.02v19.423h-9.266v-46.19l-2.196-3.775h21.002c2.013 0 3.912.355 5.696 1.064 1.784.71 3.34 1.705 4.667 2.985 1.327 1.282 2.379 2.78 3.157 4.496.777 1.716 1.167 3.603 1.167 5.662 0 2.563-.618 4.919-1.854 7.069-1.235 2.151-2.951 3.867-5.147 5.147-.778.458-1.556.892-2.333 1.304-.779.412-1.625.618-2.54.618l16.678 21.62h-11.46zm-2.814-33.424c0-1.373-.252-2.653-.755-3.843-.504-1.189-1.201-2.231-2.093-3.123-.893-.892-1.934-1.589-3.123-2.093-1.19-.503-2.471-.755-3.844-.755h-4.941v17.227h9.06c.365 0 .823-.045 1.373-.138.549-.091.982-.25 1.304-.48.457-.32.88-.755 1.27-1.304.389-.549.709-1.132.961-1.75.251-.618.446-1.258.583-1.922.136-.663.205-1.27.205-1.819zM633.967 120.444h-28.62v-46.19l-2.196-3.775h33.425l-2.608 6.726h-19.354v14.07h21.963l-2.608 6.726h-19.354v15.717h21.963l-2.611 6.726z"/></svg>