<svg xmlns="http://www.w3.org/2000/svg" width="639.526" height="242.585" viewBox="0 0 639.526 242.585">
    <path d="M48.949 48.989v112.133c0 20.904 2.646 33.676 15.533 37.703 1.499-6.664 1.49-14.43 1.488-20.972l-.004-1.358.029-16.318-.029-50.975 8.298.334.54.005c8.688 0 37.044-2.259 37.044-31.326 0-28.401-27.761-29.226-30.927-29.226h-31.972zm-32.979-33.029v160.535c0 25.348 4.107 39.081 25.819 39.081 6.398 0 10.809-1.206 13.928-3-22.728-10.003-22.733-38.295-22.733-51.454v-128.089h47.886c16.273 0 46.934 9.445 46.934 45.182 0 31.549-23.328 44.696-45.871 46.935l.026 35.031-.033 16.328.002 1.326c.005 6.673.014 14.422-1.361 21.984 4.912-.701 8.652-2.387 11.364-5.099 7.049-7.056 7.031-21.023 7.023-32.239l-.009-1.359.051-22.627 6.137-1.45c1.625-.392 40.633-10.512 40.633-59.231 0-53.815-38.745-61.854-61.838-61.854h-67.958zm25.819 215.581c-41.789 0-41.789-38.576-41.789-55.046v-176.495h83.928c18.247 0 77.799 5.613 77.799 77.814 0 32.019-14.283 50.645-26.265 60.632-7.667 6.396-15.381 10.118-20.534 12.13l-.018 10.563.004 1.323c.014 13.417.031 31.804-11.696 43.531-6.737 6.751-16.31 10.176-28.45 10.176h-.341c-5.154 7.836-14.767 15.372-32.638 15.372"/>
    <text transform="translate(192.265 177.716)" font-family="'BreweryCom-Regular'" font-size="55.349">P</text>
    <text transform="translate(228.021 177.716)" font-family="'BreweryCom-Regular'" font-size="55.349">H</text>
    <text transform="translate(270.972 177.716)" font-family="'BreweryCom-Regular'" font-size="55.349">I</text>
    <text transform="translate(288.075 177.716)" font-family="'BreweryCom-Regular'" font-size="55.349">L</text>
    <text transform="translate(318.406 177.716)">
        <tspan x="0" y="0" font-family="'BreweryCom-Regular'" font-size="55.349" letter-spacing="5">H</tspan>
        <tspan x="42.95" y="0" font-family="'BreweryCom-Regular'" font-size="55.349" letter-spacing="5">ARMO</tspan>
        <tspan x="226.432" y="0" font-family="'BreweryCom-Regular'" font-size="55.349" letter-spacing="5">N</tspan>
        <tspan x="271.929" y="0" font-family="'BreweryCom-Regular'" font-size="55.349">I</tspan>
    </text>
    <text transform="translate(607.55 177.716)" font-family="'BreweryCom-Regular'" font-size="55.349">E</text>
    <text transform="translate(192.265 228.637)">
        <tspan x="0" y="0" font-family="'BreweryCom-Regular'" font-size="55.349" letter-spacing="5">DE</tspan>
    </text>
    <text transform="translate(292.447 228.637)" font-family="'BreweryCom-Regular'" font-size="55.349">P</text>
    <text transform="translate(322.723 228.637)">
        <tspan x="0" y="0" font-family="'BreweryCom-Regular'" font-size="55.349" letter-spacing="5">A</tspan>
        <tspan x="43.338" y="0" font-family="'BreweryCom-Regular'" font-size="55.349" letter-spacing="5">R</tspan>
        <tspan x="79.37" y="0" font-family="'BreweryCom-Regular'" font-size="55.349">I</tspan>
    </text>
    <text transform="translate(419.252 228.637)" font-family="'BreweryCom-Regular'" font-size="55.349">S</text>
    <text transform="translate(188.814 120.444)">
        <tspan x="0" y="0" font-family="'BreweryCom-Heavy'" font-size="68.633" letter-spacing="6">M</tspan>
        <tspan x="65.956" y="0" font-family="'BreweryCom-Heavy'" font-size="68.633">E</tspan>
    </text>
    <text transform="translate(300 120.444)" font-family="'BreweryCom-Heavy'" font-size="68.633">T</text>
    <text transform="translate(337.404 120.444)" font-family="'BreweryCom-Heavy'" font-size="68.633">A</text>
    <text transform="translate(393.134 120.444)">
        <tspan x="0" y="0" font-family="'BreweryCom-Heavy'" font-size="68.633" letter-spacing="6">S</tspan>
        <tspan x="43.17" y="0" font-family="'BreweryCom-Heavy'" font-size="68.633">C</tspan>
    </text>
    <text transform="translate(489.701 120.444)" font-family="'BreweryCom-Heavy'" font-size="68.633">O</text>
    <text transform="translate(553.736 120.444)" font-family="'BreweryCom-Heavy'" font-size="68.633">R</text>
    <text transform="translate(601.161 120.444)" font-family="'BreweryCom-Heavy'" font-size="68.633">E</text>
</svg>