<svg xmlns="http://www.w3.org/2000/svg" width="6.47" height="2.354"><path fill="#FFF" d="M.498.498v1.14c0 .213.027.342.158.383.015-.067.015-.146.015-.213V1.11l.084.003H.76c.088 0 .376-.023.376-.318C1.136.506.854.498.822.498H.498zM.163.163v1.631c0 .258.042.396.262.396.065 0 .11-.012.142-.029-.232-.101-.232-.39-.232-.523V.336h.487c.165 0 .477.096.477.459 0 .321-.237.455-.466.477v.536c0 .068 0 .146-.014.224a.19.19 0 00.115-.052c.072-.072.072-.214.071-.328V1.408l.063-.015c.016-.004.413-.107.413-.602 0-.547-.394-.628-.628-.628h-.69zm.262 2.191C0 2.354 0 1.962 0 1.794V0h.853c.186 0 .791.058.791.791 0 .325-.146.515-.267.616a.75.75 0 01-.209.124v.12c0 .137 0 .323-.119.442-.068.07-.166.104-.289.104H.757c-.053.079-.151.157-.332.157"/><g fill="#FFF"><path d="M2.247 1.272a.112.112 0 01-.016.06.116.116 0 01-.044.044l-.01.005-.009.006a.134.134 0 01-.065.017h-.069v.155h-.04v-.391l-.012-.019h.14c.017 0 .033.003.048.01s.028.015.04.026a.119.119 0 01.037.087zm-.042.01c0-.014-.002-.027-.008-.04s-.013-.022-.022-.032a.106.106 0 00-.073-.03h-.068v.193h.086a.164.164 0 00.022-.002.06.06 0 00.021-.008.088.088 0 00.031-.035.107.107 0 00.011-.046zM2.62 1.559v-.197h-.223v.197h-.04v-.391l-.011-.019h.052v.182h.222v-.163l-.011-.019h.052v.409H2.62zM2.793 1.559v-.391l-.011-.019h.052v.41h-.041zM3.166 1.559h-.199v-.391l-.011-.019h.052v.379h.17l-.012.031zM3.538 1.559v-.197h-.222v.197h-.041v-.391l-.011-.019h.052v.182h.222v-.163l-.01-.019h.052v.409h-.042zM4.02 1.559l-.063-.142h-.186l-.055.123.006.019h-.05l.175-.391-.01-.019h.045l.182.41H4.02zm-.156-.351l-.079.178h.158l-.079-.178zM4.38 1.559l-.14-.169h-.045v.168h-.041v-.39l-.012-.019h.141a.113.113 0 01.082.034c.012.01.02.022.025.037.007.013.01.029.01.045a.115.115 0 01-.058.099.176.176 0 01-.027.014.081.081 0 01-.03.005l.146.176H4.38zm-.021-.283a.1.1 0 00-.008-.038.161.161 0 00-.021-.03.096.096 0 00-.032-.02.087.087 0 00-.037-.008h-.067v.181h.087c.006 0 .012 0 .02-.002a.054.054 0 00.019-.007.064.064 0 00.015-.014.062.062 0 00.012-.019c.004-.007.006-.014.008-.022s.004-.014.004-.021zM4.88 1.559v-.344l-.154.203h-.02l-.154-.202v.342h-.033V1.17l-.016-.021h.051l.166.221.168-.221h.033v.41H4.88zM5.468 1.349c0 .038-.01.073-.027.104s-.043.057-.076.076l-.01.005-.009.006a.236.236 0 01-.106.028.203.203 0 01-.082-.016.2.2 0 01-.112-.11.221.221 0 01.012-.186.221.221 0 01.076-.076l.009-.006a.208.208 0 01.115-.033.203.203 0 01.148.06.204.204 0 01.062.148zm-.043.011c0-.026-.004-.05-.014-.073s-.023-.043-.039-.06a.24.24 0 00-.059-.041.202.202 0 00-.116-.011.124.124 0 00-.04.016c-.014.009-.026.019-.036.031s-.02.024-.027.038-.012.028-.015.043a.182.182 0 00.009.119.188.188 0 00.097.101c.023.01.047.015.074.015a.215.215 0 00.043-.004.152.152 0 00.101-.085.114.114 0 00.017-.043.24.24 0 00.005-.046zM5.871 1.559l-.261-.343v.342h-.032v-.387l-.017-.022h.052l.26.341v-.314c0-.004-.002-.008-.004-.014l-.008-.013h.044v.41h-.034zM6.041 1.559v-.391l-.012-.019h.052v.41h-.04zM6.435 1.559h-.221v-.391l-.011-.019h.244l-.012.031h-.181v.151h.192l-.011.031h-.181v.166h.192l-.011.031z"/></g><g fill="#FFF"><path d="M2.333 1.866a.194.194 0 01-.109.178l-.01.006c-.016.008-.032.016-.049.02a.225.225 0 01-.052.007h-.119v-.391l-.012-.019h.149c.027 0 .054.005.078.016a.198.198 0 01.124.183zm-.042.011a.16.16 0 00-.014-.069c-.01-.023-.023-.041-.039-.058s-.035-.028-.057-.038-.045-.014-.07-.014h-.077v.348h.095c.014 0 .028-.001.042-.004s.027-.008.039-.016c.013-.008.024-.018.035-.028s.018-.022.025-.036a.184.184 0 00.021-.085zM2.664 2.076h-.222v-.391l-.011-.018h.244l-.011.031h-.181v.15h.192l-.011.032h-.181v.166h.192l-.011.03zM3.265 1.79a.128.128 0 01-.016.06.124.124 0 01-.044.044l-.01.005-.009.005a.133.133 0 01-.064.017h-.07v.155h-.04v-.391l-.011-.018h.14a.128.128 0 01.088.035c.012.011.021.023.027.039s.009.031.009.049zm-.042.01a.085.085 0 00-.008-.039c-.005-.013-.013-.024-.022-.033a.106.106 0 00-.073-.03h-.068v.193h.086l.022-.003a.06.06 0 00.021-.008.085.085 0 00.031-.034.11.11 0 00.011-.046zM3.626 2.076l-.063-.141h-.185l-.055.123.006.019h-.05l.174-.392-.008-.018h.044l.183.41h-.046v-.001zm-.155-.35l-.079.177h.158l-.079-.177zM3.986 2.076l-.139-.169H3.8v.169h-.04v-.391l-.01-.018h.14a.118.118 0 01.082.033c.011.01.02.022.025.037a.113.113 0 01.009.045c0 .021-.005.041-.015.058s-.024.03-.042.042a.238.238 0 01-.027.014c-.008.004-.018.004-.03.004l.147.177h-.053v-.001zm-.021-.282a.096.096 0 00-.06-.089.086.086 0 00-.036-.007H3.8v.18h.087c.006 0 .013 0 .02-.002l.018-.006a.115.115 0 00.017-.014.137.137 0 00.013-.02l.007-.021a.082.082 0 00.003-.021zM4.126 2.076v-.391l-.011-.018h.053v.41h-.042v-.001zM4.527 1.961a.118.118 0 01-.057.099l-.019.01a.113.113 0 01-.061.015.164.164 0 01-.109-.037l.014-.037c.017.014.034.025.053.033s.039.012.061.012l.02-.002a.068.068 0 00.047-.039.088.088 0 00.01-.041.075.075 0 00-.008-.039.138.138 0 00-.025-.028.151.151 0 00-.031-.016l-.038-.012-.037-.013c-.012-.005-.022-.012-.031-.018-.01-.007-.018-.017-.023-.028s-.008-.028-.008-.046a.1.1 0 01.014-.053.083.083 0 01.037-.037l.019-.011a.112.112 0 01.056-.015.177.177 0 01.103.035l-.015.037a.151.151 0 00-.105-.042c-.005 0-.012 0-.018.002a.05.05 0 00-.017.006.086.086 0 00-.026.03.099.099 0 00-.008.037c0 .016.003.028.009.038s.014.019.023.024a.13.13 0 00.031.016l.037.013.037.013a.145.145 0 01.032.02c.01.008.017.018.022.029a.086.086 0 01.011.045z"/></g><g fill="#FFF"><path d="M2.384.977V.619l-.152.206h-.044L2.036.619v.358h-.075V.514L1.93.469h.115l.176.241.177-.241h.079v.508h-.093zM2.923.977h-.291V.508L2.61.469h.34l-.027.069h-.197v.143h.224l-.027.068h-.197v.16h.224l-.027.068zM3.4.539h-.114v.438h-.094V.539h-.141l.026-.07h.35L3.4.539zM3.835.977l-.063-.14h-.211l-.044.101.015.039H3.42l.208-.469-.017-.039h.102l.225.508h-.103zm-.168-.38l-.075.172h.152L3.667.597zM4.349.82a.13.13 0 01-.02.072.128.128 0 01-.052.051l-.041.023a.165.165 0 01-.08.021c-.026 0-.051-.003-.076-.01S4.032.959 4.011.943l.031-.082c.023.017.047.03.07.041a.188.188 0 00.08.017c.01 0 .021-.002.031-.006a.084.084 0 00.028-.064c0-.023-.006-.042-.018-.054s-.026-.023-.044-.03a.219.219 0 00-.055-.02.243.243 0 01-.055-.022.123.123 0 01-.044-.037.113.113 0 01-.017-.067.133.133 0 01.067-.118l.021-.012a.196.196 0 00.021-.012.157.157 0 01.074-.019c.023 0 .047.003.07.011s.044.018.064.031l-.032.082a.386.386 0 00-.065-.039.176.176 0 00-.074-.016.059.059 0 00-.025.005.058.058 0 00-.018.026.071.071 0 00-.007.032c0 .022.006.039.017.051a.15.15 0 00.044.028.346.346 0 00.057.019c.02.006.039.013.057.023s.031.023.043.04c.011.017.017.04.017.069zM4.846.957a.352.352 0 01-.04.018.455.455 0 01-.043.01.857.857 0 01-.056.002.262.262 0 01-.182-.072.26.26 0 01-.076-.18c0-.045.012-.087.033-.125a.267.267 0 01.094-.092l.02-.012.021-.012a.262.262 0 01.131-.035.305.305 0 01.137.029l-.032.084A.247.247 0 004.667.53a.105.105 0 00-.039.015c-.013.009-.025.019-.036.032s-.018.026-.026.04a.25.25 0 00-.022.093.212.212 0 00.277.201.29.29 0 00.063-.029l.009.048-.047.027zM5.544.71a.257.257 0 01-.125.22l-.021.012a.437.437 0 01-.085.037.262.262 0 01-.247-.064.253.253 0 01-.042-.305.249.249 0 01.092-.093l.021-.012.021-.012a.262.262 0 01.231-.016c.031.013.059.03.082.053a.25.25 0 01.073.18zm-.096.025a.206.206 0 00-.057-.147.23.23 0 00-.063-.044.191.191 0 00-.08-.017l-.041.002a.137.137 0 00-.038.015c-.013.008-.025.019-.036.031s-.018.027-.025.042a.19.19 0 00-.015.046.195.195 0 00-.006.047.225.225 0 00.057.147c.019.019.04.034.064.045a.188.188 0 00.08.017c.014 0 .027 0 .04-.002a.096.096 0 00.038-.013.159.159 0 00.061-.074.204.204 0 00.021-.095zM5.943.977L5.795.78h-.03v.197H5.67V.508L5.648.469h.214a.151.151 0 01.105.041.137.137 0 01.045.104.13.13 0 01-.02.072.144.144 0 01-.052.052l-.023.013a.063.063 0 01-.027.006l.17.22h-.117zm-.028-.34a.1.1 0 00-.03-.071.09.09 0 00-.032-.021.097.097 0 00-.039-.008h-.05v.175h.093l.014-.001a.03.03 0 00.014-.005l.012-.013.009-.018a.066.066 0 00.006-.02.057.057 0 00.003-.018zM6.443.977h-.291V.508L6.13.469h.34l-.027.069h-.196v.143h.223l-.027.068h-.196v.16h.223l-.027.068z"/></g></svg>
