<svg xmlns="http://www.w3.org/2000/svg" width="263.215" height="291.214" viewBox="0 0 263.215 291.214"><path d="M253.364 281.365c-13.131 13.133-34.412 13.133-47.519 0l-74.226-84.84-74.228 84.813c-13.133 13.135-34.412 13.135-47.518 0-13.131-13.133-13.131-34.412 0-47.516l77.228-88.201-77.251-88.256c-13.133-13.132-13.133-34.384 0-47.516 13.131-13.132 34.383-13.132 47.517 0l74.254 84.869 74.23-84.869c13.131-13.132 34.383-13.132 47.516 0 13.131 13.132 13.131 34.412 0 47.516l-77.225 88.256 77.225 88.201c13.129 13.131 13.129 34.412-.003 47.543z"/></svg>