<svg xmlns="http://www.w3.org/2000/svg" width="38" height="32" viewBox="0 0 38 32"><title>time-out</title><path d="M14.577 4.954h2.995v12.08h-2.995v-12.08zM8.194 14.756h9.378v2.325h-9.378v-2.325zM16 32c4.851 0 9.197-2.159 12.131-5.569l-2.22-2.22c-2.361 2.847-5.923 4.66-9.91 4.66-7.109 0-12.872-5.763-12.872-12.871s5.763-12.872 12.872-12.872c3.987 0 7.55 1.814 9.91 4.661l2.219-2.219c-2.934-3.409-7.279-5.57-12.13-5.57-8.837 0-16 7.163-16 16s7.163 16 16 16zM29.545 24.698l8.698-8.698-8.698-8.697v5.796h-7.829v5.803h7.829v1.113z"/></svg>