<!-- Generated by IcoMoon.io -->
<svg version="1.1" xmlns="http://www.w3.org/2000/svg" width="38" height="32" viewBox="0 0 38 32">
<title>time-in</title>
<path d="M20.671 5.137h2.995v12.080h-2.995v-12.080z"></path>
<path d="M20.671 14.919h9.378v2.325h-9.378v-2.325z"></path>
<path d="M22.243 0c-4.851 0-9.197 2.159-12.131 5.569l2.22 2.22c2.361-2.847 5.923-4.66 9.911-4.66 7.109 0 12.872 5.763 12.872 12.872s-5.763 12.872-12.872 12.872c-3.987 0-7.55-1.814-9.911-4.661l-2.219 2.219c2.934 3.409 7.279 5.57 12.13 5.57 8.837 0 16-7.163 16-16s-7.163-16-16-16z"></path>
<path d="M7.829 24.697l8.698-8.698-8.698-8.697v5.796h-7.829v5.803h7.829v1.113z"></path>
</svg>
