<svg xmlns="http://www.w3.org/2000/svg" viewBox="0 0 236.395 62" xml:space="preserve">
  <path fill="#1D1D1B" d="M91.859 26.104c-1.112-3.288-2.563-4.689-4.884-4.689-2.368 0-3.674 1.449-3.674 3.818 0 5.269 14.891 5.656 14.891 16.583 0 5.995-4.109 9.96-11.119 9.96-5.415 0-9.621-2.949-11.41-9.815l6.575-1.401c.773 4.206 3.19 5.704 5.173 5.704 2.32 0 4.109-1.547 4.109-4.157 0-6.574-14.89-6.672-14.89-16.438 0-5.995 3.578-9.765 10.491-9.765 5.946 0 9.573 3.529 10.733 8.46l-5.995 1.74zM117.599 40.946c0 3.866 1.692 4.932 4.351 4.932s4.352-1.065 4.352-4.932v-2.32h6.672v1.45c0 8.604-4.545 11.7-11.023 11.7s-11.022-3.096-11.022-11.7V27.602c0-8.605 4.545-11.699 11.022-11.699 6.479 0 11.023 3.094 11.023 11.699v.097h-6.672v-.967c0-3.868-1.692-4.931-4.352-4.931-2.658 0-4.351 1.063-4.351 4.931v14.214zM152.62 26.731c0-3.868 1.691-4.93 4.351-4.93s4.352 1.062 4.352 4.93v14.214c0 3.866-1.692 4.932-4.352 4.932s-4.351-1.065-4.351-4.932V26.731zm-6.672 13.345c0 8.604 4.544 11.699 11.022 11.699s11.023-3.095 11.023-11.699V27.602c0-8.605-4.545-11.699-11.023-11.699s-11.022 3.094-11.022 11.699v12.474zM187.255 21.896h3.433c2.949 0 4.739 1.452 4.739 4.835 0 3.384-1.79 4.835-4.739 4.835h-3.433v-9.67zm16.148 29.396-6.575-15.566c3.724-1.403 5.27-4.545 5.27-8.897 0-6.575-3.819-10.443-11.845-10.443h-9.669v34.906h6.671V37.079h3.191l5.802 14.213h7.155zM217.636 51.292V16.385h18.275v5.898h-11.603v8.026h8.847v5.899h-8.847v9.185h12.087v5.899zM10.878 37.216h-.059c-.192-4.583-.384-9.166-.578-13.75H4.643L0 44.412h3.423l3.652-16.479h.059l.612 16.479h3.016l7.917-16.479h.058l-3.653 16.479h3.423l4.642-20.945h-5.597l-6.674 13.749zM21.612 44.411l4.643-20.945h10.964l-.784 3.539h-6.962l-1.068 4.815h5.309l-.784 3.539h-5.308l-1.223 5.513h7.252l-.784 3.539z"/>
  <path fill="#1D1D1B" d="m49.987 23.466-.785 3.539h-4.67L40.673 44.41h-4.002l3.857-17.405h-4.67l.785-3.539zM54.627 27.991h.057l.067 8.47h-3.975l3.851-8.47zm-7.469 16.42L49.266 40h5.541l.038 4.41h3.829l-.404-20.944h-5.134L43.3 44.411h3.858z"/>
  <g>
    <path fill="#1D1D1B" d="M102.808 0h2v62h-2z"/>
  </g>
  <g>
    <path fill="#1D1D1B" d="M138.141 0h2v62h-2z"/>
  </g>
  <g>
    <path fill="#1D1D1B" d="M66.808 0h2v62h-2z"/>
  </g>
  <g>
    <path fill="#1D1D1B" d="M173.475 0h2v62h-2z"/>
  </g>
  <g>
    <path fill="#1D1D1B" d="M208.808 0h2v62h-2z"/>
  </g>
</svg>