<?xml version="1.0" encoding="utf-8"?>
<!-- Generator: Adobe Illustrator 16.0.0, SVG Export Plug-In . SVG Version: 6.00 Build 0)  -->
<!DOCTYPE svg PUBLIC "-//W3C//DTD SVG 1.1//EN" "http://www.w3.org/Graphics/SVG/1.1/DTD/svg11.dtd">
<svg version="1.1" xmlns="http://www.w3.org/2000/svg" xmlns:xlink="http://www.w3.org/1999/xlink" x="0px" y="0px"
	 width="29.121px" height="23.421px" viewBox="0 0 29.121 23.421" enable-background="new 0 0 29.121 23.421" xml:space="preserve">
<g>
	<path fill="#808080" d="M26.621,22.921H2.5c-1.1,0-2-0.899-2-2V2.5c0-1.101,0.9-2,2-2h24.121c1.101,0,2,0.899,2,2v18.421
		C28.621,22.021,27.722,22.921,26.621,22.921"/>
	<path fill="#FFFFFF" d="M11.398,7.827c0,1.576-1.278,2.854-2.854,2.854S5.69,9.403,5.69,7.827s1.277-2.854,2.854-2.854
		S11.398,6.251,11.398,7.827"/>
	<polygon fill="#FFFFFF" points="12.33,14.496 15.302,18.166 18.097,13.215 	"/>
	<rect x="16.845" y="5.75" fill="#FFFFFF" width="5.475" height="4.96"/>
</g>
</svg>
