<svg xmlns="http://www.w3.org/2000/svg" width="29.121" height="23.422" viewBox="0 0 29.121 23.422"><path fill="#7F7F7F" d="M26.602 22.922h-24.103c-1.099 0-1.999-.9-1.999-2v-18.422c0-1.1.9-2 1.999-2h24.103c1.099 0 1.998.9 1.998 2v18.422c0 1.099-.9 2-1.998 2"/><path fill="#fff" d="M26.602 23.422h-24.103c-1.378 0-2.499-1.121-2.499-2.5v-18.422c0-1.378 1.121-2.5 2.499-2.5h24.103c1.377 0 2.498 1.122 2.498 2.5v18.422c0 1.379-1.121 2.5-2.498 2.5zm-24.103-22.422c-.827 0-1.499.673-1.499 1.5v18.422c0 .827.672 1.5 1.499 1.5h24.103c.826 0 1.498-.673 1.498-1.5v-18.422c0-.827-.672-1.5-1.498-1.5h-24.103zM2.061 10.08h1v3.262h-1zM4.061 8.497h1v6.429h-1zM6.061 6.586h1v10.25h-1zM8.061 4.663h1v14.096h-1zM10.061 6.898h1v9.625h-1zM12.061 9.58h1v4.262h-1zM14.061 10.242h1v2.938h-1zM16.061 9.58h1v4.262h-1zM18.061 7.247h1v8.929h-1zM20.061 7.83h1v7.762h-1zM22.061 5.538h1v12.346h-1zM24.061 6.898h1v9.625h-1zM26.061 8.68h1v6.063h-1z"/></svg>