<?xml version="1.0" encoding="utf-8"?>
<!-- Generator: Adobe Illustrator 16.0.0, SVG Export Plug-In . SVG Version: 6.00 Build 0)  -->
<!DOCTYPE svg PUBLIC "-//W3C//DTD SVG 1.1//EN" "http://www.w3.org/Graphics/SVG/1.1/DTD/svg11.dtd">
<svg version="1.1" xmlns="http://www.w3.org/2000/svg" xmlns:xlink="http://www.w3.org/1999/xlink" x="0px" y="0px"
	 width="29.121px" height="23.421px" viewBox="0 0 29.121 23.421" enable-background="new 0 0 29.121 23.421" xml:space="preserve">
<g>
	<path fill="#808080" d="M26.621,22.921H2.5c-1.1,0-2-0.899-2-2V2.5c0-1.101,0.9-2,2-2h24.121c1.101,0,2,0.899,2,2v18.421
		C28.621,22.021,27.722,22.921,26.621,22.921"/>
	<g>
		<path fill="#FFFFFF" d="M12.929,13.163h-0.96v-0.684h1.044l0.217-1.777h-1.021v-0.696h1.104l0.275-2.196h0.636l-0.276,2.196h1.597
			l0.288-2.196h0.636l-0.288,2.196h0.972v0.696h-1.044l-0.216,1.777h1.021v0.684h-1.104l-0.3,2.447h-0.636l0.288-2.447h-1.584
			l-0.301,2.447h-0.647L12.929,13.163z M15.245,12.479l0.216-1.777h-1.584l-0.216,1.777H15.245z"/>
	</g>
</g>
</svg>
