<?xml version="1.0" encoding="utf-8"?>
<!-- Generator: Adobe Illustrator 16.0.0, SVG Export Plug-In . SVG Version: 6.00 Build 0)  -->
<!DOCTYPE svg PUBLIC "-//W3C//DTD SVG 1.1//EN" "http://www.w3.org/Graphics/SVG/1.1/DTD/svg11.dtd">
<svg version="1.1" id="Layer_1" xmlns="http://www.w3.org/2000/svg" xmlns:xlink="http://www.w3.org/1999/xlink" x="0px" y="0px"
	 width="22.178px" height="16.307px" viewBox="0 0 22.178 16.307" enable-background="new 0 0 22.178 16.307" xml:space="preserve">
<g>
	<g>
		<path d="M19.6,15.964h-0.135l-0.188-0.114c-0.111-0.081-0.164-0.21-0.195-0.287c-0.153-0.411-0.259-0.849-0.321-1.323
			l-0.014-0.096c-0.099-0.584-0.166-1.209-0.232-1.834c-0.033-0.31-0.066-0.62-0.104-0.929l-0.321-3.519
			c-0.065-0.738-0.131-1.474-0.209-2.211c-0.074-0.854-0.168-1.646-0.269-2.426c-0.109,0.786-0.207,1.518-0.299,2.252l0.002,0.032
			l-0.026,0.18c-0.084,0.771-0.178,1.539-0.278,2.307c-0.035,0.179-0.05,0.337-0.065,0.494L16.889,8.9
			c-0.106,0.799-0.217,1.625-0.415,2.428l-0.236,0.026c-0.003,0.017-0.007,0.034-0.01,0.051l0.214,0.046
			c-0.049,0.229-0.133,0.443-0.22,0.653c-0.211,0.524-0.569,0.581-0.714,0.581c-0.146,0-0.43-0.055-0.676-0.427
			c-0.181-0.278-0.308-0.521-0.401-0.765c-0.163-0.388-0.3-0.69-0.437-0.993l-0.203-0.454c-0.209-0.47-0.404-0.946-0.579-1.434
			l0.182-0.125c-0.001-0.003-0.002-0.007-0.003-0.01c-0.003-0.009-0.006-0.019-0.01-0.028l-0.207,0.075
			c-0.105-0.291-0.202-0.585-0.3-0.88c-0.112-0.34-0.225-0.681-0.35-1.015c-0.02-0.052-0.041-0.103-0.063-0.154
			c-0.062,0.162-0.107,0.331-0.154,0.505l-0.025,0.092c-0.079,0.291-0.145,0.587-0.21,0.883l-0.188,0.833
			c-0.07,0.315-0.14,0.633-0.229,0.944l-0.082,0.251c-0.031,0.111-0.075,0.246-0.128,0.375c-0.059,0.145-0.129,0.298-0.239,0.423
			c-0.27,0.319-0.806,0.282-1.037-0.084c-0.087-0.137-0.213-0.352-0.278-0.608l-0.08-0.298c-0.11-0.406-0.223-0.826-0.291-1.264
			C9.515,8.49,9.509,8.449,9.497,8.411L9.383,7.882C9.32,7.588,9.258,7.294,9.188,7.001c-0.066,0.313-0.12,0.633-0.175,0.965
			L8.87,8.878c-0.116,0.813-0.233,1.63-0.371,2.439l-0.076,0.415c-0.066,0.352-0.135,0.716-0.246,1.07
			C8.134,12.94,8.1,13.044,8.062,13.142c-0.071,0.173-0.185,0.309-0.325,0.387c-0.276,0.159-0.67,0.035-0.854-0.305
			c-0.187-0.347-0.256-0.713-0.323-1.067c-0.021-0.113-0.043-0.227-0.069-0.339c-0.021-0.091-0.036-0.185-0.051-0.277l-0.04-0.25
			c-0.07-0.441-0.136-0.902-0.2-1.366L6.062,8.888C6.033,8.689,6.018,8.58,6.02,8.474L6,8.354c-0.051-0.343-0.098-0.687-0.145-1.03
			C5.782,6.78,5.708,6.237,5.616,5.696L5.603,5.602C5.591,5.562,5.58,5.476,5.569,5.391C5.56,5.328,5.552,5.265,5.539,5.204
			C5.525,5.098,5.51,5.036,5.495,4.974C5.467,4.812,5.441,4.689,5.414,4.58c-0.098,0.341-0.187,0.688-0.26,1.041
			C5.011,6.271,4.888,6.85,4.765,7.429L4.44,8.943C4.267,9.746,4.094,10.549,3.9,11.344l-0.032,0.131
			c-0.138,0.609-0.281,1.151-0.439,1.658c-0.079,0.254-0.183,0.549-0.358,0.814c-0.163,0.244-0.353,0.313-0.483,0.329
			c-0.244-0.009-0.399-0.072-0.545-0.224c-0.223-0.261-0.299-0.509-0.36-0.708c-0.068-0.222-0.12-0.444-0.166-0.667
			c-0.046-0.237-0.083-0.473-0.119-0.709c-0.03-0.194-0.061-0.388-0.096-0.581l-0.013-0.101c-0.088-0.623-0.161-1.263-0.234-1.901
			l-0.109-0.97C0.903,8.039,0.863,7.641,0.822,7.244c-0.055-0.53-0.109-1.061-0.171-1.59L0.643,5.56
			C0.551,4.649,0.436,3.729,0.309,2.812L0.302,2.689c-0.008-0.081-0.029-0.19-0.05-0.299c-0.023-0.125-0.047-0.25-0.059-0.377
			L0.137,1.775L0.18,1.692C0.144,1.657,0.077,1.431,0.239,1.213l0.113-0.151l0.401-0.016l0.306,0.417L1,1.526
			c0.001,0.006,0.003,0.012,0.004,0.018c0.058,0.214,0.098,0.434,0.137,0.654c0.021,0.114,0.041,0.228,0.064,0.341
			c0.039,0.077,0.057,0.15,0.071,0.208c0.146,0.917,0.253,1.798,0.336,2.692l0.024,0.214c0.101,0.882,0.197,1.763,0.28,2.649
			l0.021,0.211l0.098,0.83c0.069,0.586,0.137,1.173,0.216,1.756l0.016,0.193c0.031,0.174,0.06,0.349,0.088,0.523
			c0.053,0.327,0.104,0.642,0.175,0.946c0.012-0.042,0.024-0.085,0.036-0.127l0.027-0.094c0.125-0.431,0.238-0.866,0.337-1.306
			l0.021-0.096c0.159-0.645,0.303-1.316,0.447-1.989l0.168-0.778C3.73,7.621,3.875,6.939,4.02,6.258L4.2,5.423
			c0.095-0.389,0.204-0.796,0.315-1.206c0.038-0.131,0.077-0.256,0.123-0.379c0.053-0.144,0.107-0.282,0.179-0.398
			c0.078-0.123,0.201-0.29,0.401-0.368l0.208-0.039c0.134,0,0.266,0.046,0.38,0.135c0.134,0.105,0.247,0.254,0.319,0.423
			c0.038,0.089,0.064,0.182,0.09,0.276l0.033,0.114C6.27,4.067,6.29,4.136,6.312,4.202c0.109,0.419,0.179,0.822,0.25,1.226
			l-0.21,0.113c0.002,0.013,0.004,0.025,0.006,0.038l0.219-0.056c0.159,0.987,0.284,1.898,0.403,2.812l0.064,0.514
			c0.102,0.761,0.205,1.523,0.318,2.282l0.02,0.138c0.019,0.128,0.041,0.254,0.065,0.38c0.023-0.123,0.047-0.245,0.075-0.366
			l0.019-0.144C7.629,10.6,7.709,10.061,7.789,9.52l0.167-1.106c0.054-0.31,0.092-0.536,0.129-0.763
			C8.162,7.192,8.24,6.733,8.356,6.284c0.062-0.235,0.137-0.435,0.228-0.612c0.188-0.363,0.452-0.417,0.592-0.417
			C9.607,5.316,9.751,5.634,9.82,5.786c0.091,0.194,0.168,0.398,0.223,0.612c0.148,0.579,0.267,1.167,0.385,1.755l0.028,0.141
			c0.008,0.055,0.017,0.085,0.024,0.117c0.076,0.361,0.15,0.713,0.242,1.06l0.099-0.394c0.036-0.128,0.049-0.167,0.055-0.209
			l0.046-0.193c0.017-0.065,0.035-0.129,0.046-0.195C10.987,8.408,10.993,8.367,11,8.324l0.092-0.417
			c0.091-0.416,0.183-0.832,0.296-1.24c0.076-0.264,0.156-0.525,0.257-0.775c0.042-0.112,0.18-0.472,0.521-0.636l0.13-0.048
			c0.174-0.042,0.407-0.029,0.561,0.115c0.276,0.257,0.428,0.595,0.539,0.891c0.159,0.414,0.303,0.838,0.445,1.263
			c0.088,0.258,0.175,0.517,0.266,0.772l0.037,0.119c0.243,0.644,0.531,1.289,0.809,1.911l0.395,0.893
			c0.032,0.084,0.07,0.164,0.11,0.241c0.018-0.062,0.032-0.126,0.044-0.192l0.02-0.098c0.164-0.647,0.262-1.339,0.356-2.008
			l0.083-0.571c0.019-0.076,0.022-0.112,0.022-0.159c0.026-0.259,0.054-0.476,0.081-0.693c0.029-0.225,0.058-0.45,0.082-0.676
			c0.031-0.169,0.055-0.307,0.063-0.45l0.052-0.454c0.021-0.184,0.043-0.368,0.062-0.552l0.06-0.515
			c0.088-0.698,0.176-1.396,0.284-2.092c0.019-0.134,0.032-0.236,0.07-0.344l0.076-0.224c0.041-0.164,0.082-0.327,0.108-0.492
			c0.054-0.334,0.189-0.625,0.428-0.914l0.327-0.398l0.277,0.434c0.152,0.238,0.319,0.523,0.375,0.894
			c0.023,0.156,0.055,0.31,0.086,0.464l0.038,0.185c-0.008-0.039,0.03,0.002,0.058,0.092c0.136,0.82,0.219,1.62,0.292,2.326
			l0.017,0.136c0.016,0.123,0.03,0.247,0.027,0.371c-0.005,0.055,0.003,0.093,0.012,0.127c0.103,0.914,0.184,1.785,0.251,2.654
			c-0.004,0.111-0.001,0.156,0.011,0.198l0.044,0.399c0.073,0.755,0.146,1.51,0.211,2.267c-0.004,0.114-0.003,0.155,0.005,0.18
			c0.053,0.372,0.086,0.678,0.119,0.983c0.051,0.468,0.102,0.936,0.168,1.4c0.106-0.67,0.193-1.344,0.279-2.018l0.165-1.331
			c0.066-0.513,0.133-1.026,0.193-1.542c0.012-0.099,0.029-0.202,0.047-0.301l0.024-0.159c0.127-1.034,0.28-1.939,0.467-2.768
			c0.025-0.077,0.036-0.109,0.045-0.143l0.051-0.188c0.025-0.096,0.051-0.192,0.08-0.286c0.026-0.087,0.058-0.172,0.093-0.255
			c0.045-0.105,0.087-0.197,0.137-0.272c0.096-0.152,0.248-0.242,0.413-0.242h0.12l0.149,0.088c0.06,0.04,0.276,0.217,0.169,0.576
			c-0.03,0.089-0.063,0.165-0.096,0.239c-0.02,0.046-0.04,0.091-0.057,0.138c-0.03,0.084-0.054,0.174-0.077,0.264l-0.056,0.224
			c-0.207,0.859-0.336,1.759-0.459,2.63l-0.017,0.112c-0.067,0.519-0.124,0.965-0.18,1.411c-0.056,0.448-0.111,0.896-0.174,1.344
			c-0.012,0.059-0.024,0.111-0.022,0.138l-0.056,0.509c-0.095,0.763-0.192,1.551-0.331,2.322c-0.072,0.467-0.169,0.86-0.306,1.269
			c-0.027,0.085-0.076,0.213-0.178,0.319c-0.151,0.151-0.332,0.178-0.392,0.187L19.6,15.964z"/>
	</g>
</g>
</svg>
